/* XPM */
static char *bd86fab00f714a15cc7916c02ba365feQBA4TAw3WjCDYQRx[] = {
/* columns rows colors chars-per-pixel */
"75 75 66 1 ",
"  c #000000",
". c #090603",
"X c #0E0A05",
"o c #120C06",
"O c #181504",
"+ c #1E140A",
"@ c #21160B",
"# c #261A0C",
"$ c #291C0D",
"% c #2D1C10",
"& c #301F11",
"* c #2D210B",
"= c #32250C",
"- c #36290B",
"; c #3B2C0C",
": c #352213",
"> c #3B2515",
", c #3F2816",
"< c #44340B",
"1 c #402717",
"2 c #412A17",
"3 c #472D19",
"4 c #492E1A",
"5 c #4D311D",
"6 c #51331F",
"7 c #4F3220",
"8 c #543520",
"9 c #593723",
"0 c #573823",
"q c #5B3A24",
"w c #5E3C26",
"e c #5F3C28",
"r c #613F26",
"t c #643E27",
"y c #633F29",
"u c #653F28",
"i c #624027",
"p c #644026",
"a c #634128",
"s c #644028",
"d c #83750F",
"f c #84780F",
"g c #897D0F",
"h c #887810",
"j c #897E10",
"k c #96840E",
"l c #988B0F",
"z c #8B8210",
"x c #8D8211",
"c c #BE910D",
"v c #C6990D",
"b c #CA9F0D",
"n c #CBA00E",
"m c #D1A80D",
"M c #DBAB0E",
"N c #DAAD0E",
"B c #DDAD0D",
"V c #E3B60D",
"C c #E4B40E",
"Z c #E8B90D",
"A c #E9BC0C",
"S c #D0C105",
"D c #D8C705",
"F c #DCC507",
"G c #E8CD07",
"H c #F2C20C",
/* pixels */
"ssuusssssssssssssssssssssssssssssssssssssssssssssssssssawwpssssssssssssssss",
"sssssssssssssssssssssssssssssssssssssssssssssssssssrsssyqwsssssssssssssssss",
"ssssssssssssssssssssssssssssssssssssssssssssssssssywwwwq0qwrsssssssssssssss",
"ssrwrsssssssssssssssssssssssssssssssssssssssssssssywrrrwqqrysssssssssssssss",
"ssiryssrssssssssssssssssssssssssssssssssssssssssssssssssrysssssssssssssssss",
"sssssssssssssssssssssssssssssssssssssssssssssssssrsssspsssssssrsppssssyrair",
"ssssssssssssssssssssssssssssssssssssssssssssssssuusssssyrassssssssssssrrsry",
"ssuussssssssssssssssssssssssssssssssssssssssssssssssssswwasssssssssssssssss",
"sssssssssssssssssssssssssssssssssssssasssssssssssssrsssewsyqqqqrsssssssusss",
"sssssssssrsssspsssssssssssssssssrsssssssssssssssssssssseqqwwwwwwqrsssssssss",
"q088qqqqq0889wq0qqqqqqqqqqqqqqqqqqqqqqqqqqqqqqqqqqqqwqq856qqwqqq8qqqwssssss",
"543455554433565500000000qewwq0qqqq000qwq0000000000000005580000000000qwwwwww",
"qqqqqqqqqqqqqqq0rrrrrrrryuusrryryrrwrysrrrrrrrrrrrrrrrrqqrrwrryrrrrrrrrwrrr",
"ssssrssssssusswwsssssssssssssssssssssssssssssssssssssssryssssssssssssssssss",
"saasssssssspasrysssssssssssssssssssssssssssssssssssssssssssssssasssssssssss",
"rsssssssssssssrsssssss      ssssssssssssssssssssssssssussusssspsstusassssss",
"rssrsssssrsssssssssssss         sssssssssssssssssssssssssssssssussssrsssssy",
"rsssssssssssssssssssssss  8888     ssssssssssssssssssssssssssssssssayqqqqqq",
"rssssssssssssayrsssssssss  88888     ssssssssssssssssssssssssssssyqqqqwwwq8",
"sssssssssssssawwssssssssss  88888 +     ssa@@++sssssssssssrqqqqqqqqwrrsyqww",
"ssssssssssssssrwsssssrssss  3388888#o   u@*-xz#+ssssssssusywwwwwwwwqqqqq8qq",
"sssssssssssssyqwsssssssssss ,434466682o .OgSDlx#+sssssssssssssssssywwwwrwww",
"ssssssssssyayqqqwwwwrssssss  33344468886#dlFGVMx@ssssssssssssssspppsssssssp",
"ssssssssrsssrrq9wrrryssssss  33334466866*hmAHZMx@ssssssssssssssssssssssssss",
"ssssssspsrssusrwyssspssrsss  22333446665=hbBCNkj@ssssssssssssssssssssssssss",
"ssssssssssssusw9sssssssssss  33333444555$;cvnkfo+sssssssssssrrssssrssssssss",
"sssssssssssssy86wrssssrsss  333333334432#$-<dd=. sssssssssssssssssssssssrrs",
"wqqwwq888888865456888888qw  333333333332#@@#$#@+  888888888888qwwwrssrsseqq",
"5545554333333333333333334   4333333333333++++@+8+  343334333358qqrrspssrq80",
"qqqqqqqqqqqqqqqqqqqqqqqq   833333333333333@#25568+ 66558qqqqqqrwysrssrsrrrr",
"ssssssssppssssssssssssss  .3333333333333332223555@  r88yassssssssssssssssss",
"ssssssssssssssssssssss   .:23333333333333333345655+ s08ssssssssssssssssssss",
"ssssssssssssssss       .X:,33333333333333333345655o y85rruppssssssssssrssss",
"sssssssssssssss      .X:>,233333333333333333344566o q57qwrspsssssssssssssss",
"ssssssssssss        .>>,223333333333333333333345662  46q8qrsrwwwwrywryrssss",
"sssssssssss     .333222333333333333333333333333466,  556wrysirrrwyiryryssss",
"sssssssssss   X:,333333333333333333333333333333344   858yssssssssssssssssss",
"sssssssssss  o&>235333333333333333333333332222,,,,.     sssssssrsspsspsssss",
"ssssssssss  o%>234443333333333333444433321,>:::&  .        ssssssssssssssss",
"sssssssss  .%:,244443333333333334444543,,::%%%   ,233       rssusssssssssss",
"sssssssss  .:>23444333333333333666    3>:     >,22336633     ssssssssssssss",
"sssssssss  .:>23443333333333333644444332,>:::>,2334555533     pssssssssssss",
"888888888  .&>2333333333333333333433333222122233334566653     sssssssssssss",
"333333333   %:23333333333333333333333333333333333344566663     qqqqqqqqqqqq",
"qqqqqqqqq   .:,23333333333333333333333333333333333344566663    555555555555",
"ssssssssss   X,233333333333333333333333333333333333344566633   865333333333",
"ssssssssss    2333433333333333333333333333333433333334568643   rywqqqqqqqqq",
"sssssssssss    333333333333333333333333333333333333334556633   ssssssssssss",
"ssssssssssss       332>:>23333333333333333333344443334446633   ssssssssssss",
"ssssssssssss        .o+@#:244443333333333333333333333344533   sssssssssssss",
"ssssssssss          .o+  :245     3333333333333333333332223   sssssssssssss",
"sssssssss    o+#+3362>:&%:24555433  333333333333333332,>>.    sssssssssssss",
"sssssssss   +5533333322,,,23445643333333333333333332,:&o.    ssssssssssssss",
"ssssssss   +54544333333333334433333333333333334433,>:#+ .      ssssssssssss",
"sssssss   o534666433333333333333333333444444444552      X.  o   sssssssssss",
"qrsssrs   q355666663333333333333333333444554555543%:::::,,.     sssssssssss",
"wrssss   3356686668333333333333333333454444444553322,22333222    ssssssssss",
"ssssss   33566866553333333333333333333444444444433333335555423   ssssssssss",
"ssssss   23568655443333333333333333333333333333333333334565532    sssssssss",
"sssss   224556554333333333333333333333333333333333333334556522    sssssssss",
"sssss   22455554433333333333333333333333333333333333333455542,    ssssaywrr",
"sssss   2245554433333333333333333333333333333333333333345542>.    rssrwwrww",
"88888   54444433333333333333333333333333333333333333333454,>.     qqqwryssr",
"555553   2333333333333333333333333333333333333333333333652,.      555588888",
"888885   333333333333333333333333333333333333333348438833.       q865343333",
"wwwwwwy   333333333333333333333333333333333333338888883          srrwqqqqqq",
"sssassss        333433333333333333333333333333333333            sssssssssss",
"ssssssssss++                                                 ssssssssssssss",
"ssssssssss++++++++                                      +sssssspsssssssssss",
"ssssssssssy####@+++++++++++++++++++++++++++++++++++++++++ssssssssssssssssss",
"ssssssssssawq5>&#@++++++++++++++++++++++++++++++++++++++sssssssssssssssssss",
"sspssssssssrwq85:$#++++++++++++++++++++++ssssssssssssssssssrssussssssssssss",
"ssssssssssssyrwqqqwysspsssssssspssssssssssssrsssssssssssarpsssssssssssssssu",
"ssssssssssssssyyrrrwwwwwwrsyrsssssssssssssssussssssssusssssssssssssssssssss",
"sssssssssssusssaryq8qqqqqqwqwywwwwwwwwwwwwwwrywwwwwwwrywwrsssssssssyrywwwwr"
};
