/* XPM */
static char *_247a4d7270b4373c5660ef1d3b16afdYX7pUTszcEzMTR9X[] = {
/* columns rows colors chars-per-pixel */
"75 75 114 2 ",
"   c #000000",
".  c #090605",
"X  c #0D0806",
"o  c #0B0808",
"O  c #130C0A",
"+  c #1E120D",
"@  c #1E1411",
"#  c #24170E",
"$  c #251717",
"%  c #271910",
"&  c #2C1C12",
"*  c #251B1A",
"=  c #2A1D1C",
"-  c #371B1A",
";  c #2F211E",
":  c #352215",
">  c #3F2917",
",  c #39231E",
"<  c #2C2323",
"1  c #2F2928",
"2  c #372622",
"3  c #392723",
"4  c #372822",
"5  c #3C2925",
"6  c #372E2E",
"7  c #3A2E2B",
"8  c #3D312D",
"9  c #3D3434",
"0  c #3F3837",
"q  c #3B3738",
"w  c #3E3939",
"e  c #401B1A",
"r  c #462D1A",
"t  c #4D311D",
"y  c #52351F",
"u  c #422C26",
"i  c #492D26",
"p  c #442E29",
"a  c #4A2F2A",
"s  c #4E3320",
"d  c #46312C",
"f  c #4A332E",
"g  c #4B382F",
"h  c #553622",
"j  c #593722",
"k  c #573823",
"l  c #5C3B25",
"z  c #52342D",
"x  c #58372F",
"c  c #56382F",
"v  c #433534",
"b  c #4B3631",
"n  c #453936",
"m  c #4C3932",
"M  c #433C3C",
"N  c #493C3B",
"B  c #523631",
"V  c #533A34",
"C  c #5B3B34",
"Z  c #523C38",
"A  c #613D26",
"S  c #623F28",
"D  c #623E35",
"F  c #693F36",
"G  c #45403E",
"H  c #4A403F",
"J  c #634026",
"K  c #644028",
"L  c #664136",
"P  c #6A4237",
"I  c #654039",
"U  c #6D4438",
"Y  c #724639",
"T  c #3F3F40",
"R  c #433F40",
"E  c #523F40",
"W  c #3F4142",
"Q  c #454141",
"!  c #4B4444",
"~  c #4B4748",
"^  c #4E494A",
"/  c #514140",
"(  c #504746",
")  c #574745",
"_  c #5B4544",
"`  c #514B4B",
"'  c #544948",
"]  c #504E4F",
"[  c #544E4E",
"{  c #584949",
"}  c #545152",
"|  c #565556",
" . c #595353",
".. c #5D5250",
"X. c #5A5656",
"o. c #5C5656",
"O. c #5E5A5A",
"+. c #5F5C5D",
"@. c #675956",
"#. c #625858",
"$. c #615E5E",
"%. c #6D5B5A",
"&. c #6C5D5B",
"*. c #686262",
"=. c #686667",
"-. c #6C6767",
";. c #6C696A",
":. c #6E6D6D",
">. c #706262",
",. c #7A7576",
"<. c #7D7A7A",
"1. c #807171",
"2. c #827D7D",
"3. c #949090",
/* pixels */
"K K S S K K K K K K K K K K K K K K K K K K K K K K K K K K K K K K K K K K K K K K K K K K K K K K K K K K K K l l J K K K K K K K K K K K K K K K K ",
"K K K K K K K K K K K K K K K K K K K K K K K K K K K K K K K K K K K K K K K K K K K K K K K K K K K A K K K S l l K K K K K K K K K K K K K K K K K ",
"K K K K K K K K K K K K K K K K K K K K l l A l A l A l A A A A l l A l l A l l l l A l A A l A l l l j j j j h y h j l A A l A A A A A S K K K K K K ",
"K K A l A K K K K K K K K K K K K t                                                                                                         K l K K K ",
"K K J A l                                                                                                                                       K K K ",
"K K K &                                                                                                                                           K A ",
"K K O                                                                                                                                               h ",
"K h                                       .   . . . . .         .                                       .   .       . . . . .                       K ",
"K #                                   @.' #.-.[ ! / n v ) @.&...! ! ( ! ( ! H N N H ! ! ! N v v v 9 { 1.>./ ! N b b a B m _ %...! / E b a +         K ",
"K           1 Q ] ^ Q w M M M w 0 w +.;.X.-.,.O.^ ^ R q } =.;.O.^ ^ ] ] ] ^ ! Q Q ~ ] ] ^ ! Q M M 0 +.3.<.} ] ~ Q T w W Q | :.$.^ ] ^ Q M 3         K ",
"l           7 M ^ ` ! M M M M M 0 M `  .[ }  .} ] ! M M M Q Q Q M M M M M M M M M M M M M M M M M Q } *.O.` [ ^ Q M M 0 M Q ! ! Q ! Q M 6 .         K ",
"t             v 0 0 v v f m m f v n M M M Q Q Q M M 9 v c C C C C C C C x 3 z V Z Z Z V V m V 2 d v M Q Q M M M M v f z z z f v 0 0 v $             l ",
"l             n 0 0 9 f u i i i 5 9 q 0 0 w w 0 0 0 9 f f D D D D D D D a i , f C C C C C C d u 3 v q 0 0 0 0 q 0 9 f D i u 5 n 0 M v O           t A ",
"K             n w 2 v f i z a f i V m m Z Z Z Z Z Z m B f c C C C C C c z u u f B C C C C C D i i 5 m b b b m m m B V D z a u m M M v o         h K K ",
"K K           M M 2 v m b f f f m m m m m m p L 5 3 5 d f z B V V V B f f d d f B V V V B f p 3 2 P 2 m m m m m m m B z f d p n M Q v o         j K K ",
"A K           M Q 2 v m m b f m m m m m f f d B p d d d d m B B B z f 2 a 2 2 f m B B B m f d f 5 D 2 b f f m m f f m f d d 2 I R ! v o         j K K ",
"A K           M ! 2 9 m f f d f m m m b d d 5 d 3 d d d b m m m f f d 3 a 2 d d f m m m m f f f 2 B 2 b b m b b f d d d d d 2 C Q ^ 9 o         k K S ",
"A K           M ~ M 2 b d d d d b m b m d d 5 p 3 d d f f m m m f d d 3 a 3 d d d m m m m m b f 2 2 2 d b b f d d d d d d p 2 f Q ` 9 o         y j l ",
"A K .         9 ~ M 2 b d d d d b m m m d d 5 p 3 p d f b m m m m f d 5 p 3 p d d m m m m m f f 2 2 2 d b m f f p d d d d p 2 f G ` 9 o         h l h ",
"K K .         9 ! M 2 d d d d d b m m m d d 5 p 3 p d d b m m m m f d 5 d 3 p d d m m m m m f f 3 d 2 d f f f d p d d d d p 3 f M ^ 9 o         h l l ",
"K K .         9 R M 9 f d d d d m m m b f d 5 u 3 p p d f m m m m f d p z u 3 d d m m m m m f d 2 d 2 d d f f d p p d d d p 2 z M ` 9 o         t j l ",
"K K           p M M 9 d d d d d m m m b f d 5 u 3 p d d m m f m m f f p B 3 u d d m m m m m f d 3 a 2 d d f d d p p d d d p 2 z M ! v o         h l l ",
"K K           p M M 9 d d a d d m m m m f d p u 3 p p d m m m m m f f u C 3 u d d m m m m m b d 3 p 3 2 d f d d p p d d d d 2 U 0 M v o         h K J ",
"K K           p M M 9 b d d d d m m m m f d p p 2 p d d f m m m m f f 5 D 3 u d d m m m m m b d 3 i 3 3 d f d d p p d d d d 2 U 9 Q v o         l K K ",
"K K           p M M 9 b f f b m m m m m f d p p 3 d d f m m m m m f f 5 F 3 p d d f m m m m b d 3 a 3 2 d f f d p p d d d d 2 Y 0 Q v o         k K K ",
"K K           p N R 9 b b b m m m m f m b f 5 p 5 d f b m m m m m f b 2 D 2 p d d m m m m m b d 3 z 3 2 d f d d p p d d d d p Y 0 ! v .         j K K ",
"K K           p ` ^ n b b m m m m m m m m f p p 5 d f m m m m m m f f p C 2 p d d m m m m m b d 3 2 2 3 d d f d d d d d d d p U v ! v o         h A K ",
"l l           p ! ^ n b b m m b d b f m f d p i u d b m m b m m m d d d z 5 p d d m m m m m f d f 2 2 2 d d f d d d d d d d p I v ^ v o         k l l ",
"t t           p M M v b b m f f d d f m f d p i u d b b b d b b b d d u d 5 d d d m m m m m f f f 3 3 3 d d b b f d d d d f d I n ^ v o         s h k ",
"l l           9 M M v b b b f d d d f m f d p u 5 d b f b d d b b f d u p 5 p d d m m m m b f d d 5 a 3 a d b b f d d d d f f D v ! v o         h A A ",
"K K           9 Q M 9 b b m f d d d d m f d 5 i 5 d b f d d d b m d d u 5 5 p d d m m m m f f d d u a 5 d f m m m f d d d m f D v Q M o         j K K ",
"K K           9 Q M 9 b b b f d d d d m b d 3 p 3 f b f d d d b b f d u 5 5 5 p d m m f f f f d d u p 5 d d m m m m d d d f f D v M M o         j K K ",
"K K           v M M 2 b b b d d d d d m f d 5 d 5 d f f d d d b b f d p 5 5 5 d d m m f f d d d d u a 5 p d b b b b f f d f u D 9 M M o         j K K ",
"K K           a M M 2 b f b d d d d d m f d 5 d 5 d f f d d d f b b d p d 5 5 d d m m d d d d d d u a 5 p d f b b b b b d f 5 L 9 M M o         j K K ",
"K K           a N M 4 v f f d p d d f m d d 5 p 5 d f f d d d d f b b u f 5 5 d d m m f d d d d d 5 a 3 5 d f b m b m b m z 2 P 9 M M o         k K K ",
"K K           a ! M 4 f f d d p d d b m f d u u 5 d d d d d d d f f d 5 c 3 3 d d m m d d d d d f 3 a 3 u d f b m m m b m f 2 U 9 M M o         j K K ",
"K K           d ! M 4 d d d d p d d b m b d u p 5 d d d d d p d d f f 3 z 2 2 d d m m d d d d d f 2 3 p u d b b m m m b f f 2 P 9 M M o         h K K ",
"K K           d Q M 2 v b d d p d d b m b d 5 p 5 d d d d d d d d d f 2 d 2 p d d m m d d d d d d 2 3 p 5 d d b m m m b f f 2 L 8 M M o         j K K ",
"K K           v Q M 2 v f d d d d d b b f d 5 d 5 d d d d d d d d d d 2 d 2 d d d m m d d d d d 2 2 2 p u d b b m m m b f f 2 2 8 M M o         k K K ",
"K K           v Q M 2 v d d d d d d f b m f 5 f 5 d d d d d d f f d d 2 d 2 d d d m m f d d d d 2 C 3 p p d f b m m m b f f d 2 8 M M o         l K K ",
"K K           9 Q M 2 d d d d d d d f b g f 2 f 2 d d d d d f f f f d 3 d 2 d d d m m d d d d d 2 x 3 p p d d b m m m b d f d 2 8 M M o         k K K ",
"K K           9 ! M 2 d d d d d d d f b b f 3 d 5 d d d d d f m m f d 3 d 2 d d d m m f d d d d 2 z 2 a p d d m m m m b d f d 2 8 M M o         j K K ",
"h h           9 Q Q 2 b d d d d d f f b b f 5 d 5 d d d d d d m m d d 3 d 2 d d d m m d d d d d 2 z 3 d p d d m m m m m f f f 2 8 M Q o         h K K ",
"r r           9 Q Q 2 b d d d d d d f f f f 5 d 5 d d d d d d b b d d 3 d 2 p d d m m f d d d d 2 f 3 a p d d m m f m m f f f 2 8 M ! o         t j j ",
"l l           9 Q Q 2 b d d d d d d d b f d 5 p u p d d d d d f f d d 2 d 3 d d d m m f f d d d 2 f 2 p p p d m m m m b f f f 3 8 M ! o         r t t ",
"K K           9 Q Q 2 b d d d d d d d b f d 5 p u p d d d d d f d d p 3 d 3 p d d m m f d d d d 2 f 2 p p p d m m m m b f f f 3 v M ! o         > r r ",
"K K           9 Q Q 2 b d d d d d p b m f d 5 p u d d d d d d d d p p 3 p 3 d d d m m f d d d d 3 f 2 p u p d m m m m b m m f 3 v M ! o         s l l ",
"K K           v Q Q 2 b d d d d d f m m f d 5 d 5 d d d d d d d d p p 5 u 5 d d d m m m d d d d 2 d 2 p u p d m m m m m m f m V n ! ! o         j K K ",
"K K           a Q ! 2 b d d d d d f m b d d 3 f a d d d d d d d d p p 5 5 3 p d d m m m f d p d 3 f 2 i p p d m m m m b b f m 2 n ` ! o         j K K ",
"K K           a Q ! 2 b d d d d d m m b f f 3 f 3 d d d d d f b d d p 5 3 5 p p d m m m b d p d 3 z 2 u p p d m m m m b b m f 2 n ! Q o         j K K ",
"K K           p Q Q 2 b b d d d d m m b f d 3 z 2 d d d d d f m d d p 5 3 5 u d d m m m m d p d 2 z 2 u 5 d d m m m m b b m b 2 N Q M o         k K K ",
"K K X         p Q Q 2 b b d d d d m m m f d 3 z 3 d d d d d m m b d p 5 3 3 5 d d f m m m f p d 2 f 2 u p d f m m m m b b m m 2 n Q M o         j K K ",
"K K .         d ! Q 2 b b d d d f m m m f d 2 z 2 d d d d d m m b d d 5 3 3 u d d m m m m f p p 2 a 2 p p d f m m m m b b m f 2 M M M o         k K K ",
"K K .         d ! Q 2 b b b b b f m m m f d 2 a 3 d d d d d m m m d d 3 3 3 p d d m m m m f p p 2 i 2 p p d b m m m m b f f f 2 n M M o         j K K ",
"K K .         v ! M 2 b b b b b m m m m f 2 2 a 2 d d d d d m m m f d 3 2 2 u p d b m m b v p p 2 i 2 u d d b m m m m b f b b 2 M M M o         k K K ",
"l A           v Q M 2 b b m m m m m m m f 2 2 p 2 p d d d d b m m f d p 2 u p p d b m m b v p p 2 p 2 p d d f m m m m b f m 2 2 v M M o         l K K ",
"l A           n R M 2 b b m m m m m m b d 2 2 i 2 p d d d d f b m b d p 2 u p d d b m b b f p p 2 p 2 p d d b m m m m f d m 2 Z v M M o         h K K ",
"K K           M R M 2 b b m m m m m m f d p 2 u 2 p p d d d d b m f d 2 u u p d d f m f f f d d 2 d 2 p d d b m m m m f d f 2 Z n M M o         l K K ",
"K K           M Q M 2 d b m m m m m b f d 5 2 i 2 u d d d d f m m b f 2 u u p d d f m m f f p d 2 d 2 d a d b m m f f b f f 2 2 n M M o         h K K ",
"K l           M Q M 2 2 b b m f f f f d d 5 2 i 2 p d f f f f m m m m 2 i 5 p d d f m m m m f f 2 f 2 a a d m m m f b b d f 3 2 n M M o         k K K ",
"K &         X M Q M 8 2 d d d d d d d d d 5 2 i 2 p d d d f m m m m m 2 a 5 5 d d f m m m b b f 2 z 3 d d d m m b b b d d d 3 3 v M M O           h A ",
"K           @ n M M 8 2 d d d d d d d p d 3 2 i 2 p d d d f m m m m m * f 3 5 d d f b m m m b f 2 c 3 2 p d d d d d d d d d p 2 v M n =           K l ",
"K           i v 0 0 2 2 3 3 5 5 5 5 5 3 3 2 2 f ; 5 5 5 3 2 f f f f m * z 2 3 d d f b m m m m b 2 C f 2 d d d d d d d d 5 5 2 2 9 0 n v             K ",
"K         O b M q M n 2 2 3 3 3 3 3 2 2 2 2 2 f = 3 3 3 2 2 2 2 2 2 2 2 z 2 2 2 2 2 2 2 2 2 2 2 2 I u p 3 2 2 2 2 2 5 3 2 2 2 z 9 M M v -           K ",
"K         9 M M ! O.o.] ! Q Q M M M M M M M M ! ! Q G M M M M M M M N M M 9 9 7 7 7 7 7 7 7 9 M M M M M n v v v n 2 M M M M M M M Q M M B e         K ",
"K         Q ! ` =.2.,.=.[ ! ! ! ! ! Q Q ! ! ] #.O.} [ ^ Q ! ^ ` ^ ] ] ` ! ! ! ! ~ ! ! ! ^ ^ ^ ^ ! ! ! ! ! ! ! ! ! ^ ` ` ` ] ` ` ] ] ] ^ Q w         K ",
"K         M M Q Q M M M M M M M M M M M M M M M M Q Q Q M M M M M Q Q M M M M M M M M M M M M M M M M M M M M M M M M M M Q Q Q Q Q Q M 9 <         K ",
"K         o 7 N n 9 9 0 M M M M n n n v n n n v n n N n v v n n n n n n n n n n n n n M M 0 M M M M M 0 0 0 0 0 0 0 M M M M M M v v v < .           K ",
"K             * v M 0 0 0 0 0 v v b b b b b v v b b b b b b b b b b b b b b b b b b b v M 0 0 0 0 0 0 0 0 0 0 0 0 0 0 0 0 0 9 6 * o                 K ",
"K                                                                                                                                                   K ",
"K :                                                                                                                                               k K ",
"K K +                                                                                                                                         : K K K ",
"K K K l &                                                                                                                                 r K K K K S ",
"K K K K K K h % .                                                                                                           . X & h S K K K K K K K K ",
"K K K K K K K K K K K K K K K S A S l h j j j j k l l j l S l l l l l l l l l l l l l l A S l l l l l l l A S l l A K K K K K K K K K S A S l l l l A "
};
