/* XPM */
static char *d8eec364173b462db3baf4b539fe9802zFYMTs7FtWnlZ7h9[] = {
/* columns rows colors chars-per-pixel */
"75 75 114 2 ",
"   c #000000",
".  c #090605",
"X  c #0D0806",
"o  c #0B0808",
"O  c #130C0A",
"+  c #1E120D",
"@  c #1E1411",
"#  c #24170E",
"$  c #251717",
"%  c #271910",
"&  c #2C1C12",
"*  c #251C1C",
"=  c #291B1B",
"-  c #371B1A",
";  c #352215",
":  c #3F2917",
">  c #33231F",
",  c #2C2323",
"<  c #2F2928",
"1  c #342421",
"2  c #392723",
"3  c #372926",
"4  c #3A2924",
"5  c #372C2B",
"6  c #3A2D2B",
"7  c #3C302E",
"8  c #3D3434",
"9  c #3F3837",
"0  c #3B3738",
"q  c #3E3939",
"w  c #401B1A",
"e  c #462D1A",
"r  c #4D311D",
"t  c #52351F",
"y  c #442B25",
"u  c #492D26",
"i  c #442D2B",
"p  c #4B2F28",
"a  c #4E3320",
"s  c #46322F",
"d  c #4E312A",
"f  c #553622",
"g  c #573823",
"h  c #5C3A25",
"j  c #53342D",
"k  c #59372F",
"l  c #5C382F",
"z  c #423534",
"x  c #493733",
"c  c #453836",
"v  c #4D3935",
"b  c #433C3C",
"n  c #493C3B",
"m  c #503431",
"M  c #533933",
"N  c #5D3A31",
"B  c #523C38",
"V  c #613D26",
"C  c #623F28",
"Z  c #633D33",
"A  c #693F35",
"S  c #47403F",
"D  c #4A403F",
"F  c #634026",
"G  c #644028",
"H  c #674036",
"J  c #6B4137",
"K  c #6D4239",
"L  c #73453B",
"P  c #7A4A3E",
"I  c #3F3F40",
"U  c #433F40",
"Y  c #523F40",
"T  c #3F4142",
"R  c #454141",
"E  c #4B4444",
"W  c #4F4847",
"Q  c #4B4748",
"!  c #4E4949",
"~  c #4F4B4C",
"^  c #514140",
"/  c #504746",
"(  c #574745",
")  c #5B4544",
"_  c #514B4B",
"`  c #544948",
"'  c #504E4F",
"]  c #544E4E",
"[  c #584949",
"{  c #545152",
"}  c #565556",
"|  c #595353",
" . c #5D5250",
".. c #5A5656",
"X. c #5C5656",
"o. c #5D5A5A",
"O. c #5F5C5D",
"+. c #605150",
"@. c #675956",
"#. c #625858",
"$. c #615E5E",
"%. c #6D5B5A",
"&. c #6C5D5B",
"*. c #686262",
"=. c #686667",
"-. c #6C6767",
";. c #6C696A",
":. c #6E6D6D",
">. c #706262",
",. c #7A7576",
"<. c #7D7A7A",
"1. c #807171",
"2. c #827D7D",
"3. c #949090",
/* pixels */
"G G C C G G G G G G G G G G G G G G G G G G G G G G G G G G G G G G G G G G G G G G G G G G G G G G G G G G G G h h F G G G G G G G G G G G G G G G G ",
"G G G G G G G G G G G G G G G G G G G G G G G G G G G G G G G G G G G G G G G G G G G G G G G G G G G V G G G C h h G G G G G G G G G G G G G G G G G ",
"G G G G G G G G G G G G G G G G G G G G h h V h V h V h V V V V h h V h h V h h h h V h V V h V h h h g g g g g t f g h V V h V V V V V C G G G G G G ",
"G G V h V G G G G G G G G G G G G r                                                                                                         G h G G G ",
"G G F V h                                                                                                                                       G G G ",
"G G G &                                                                                                                                           G V ",
"G G O                                                                                                                                               f ",
"G f                                       .   . . . . .         .                                       .   .       . . . . .                       G ",
"G #                                   @.` #.-.] E ^ v z ( @.&. .E W / W / E D n n D E E E n z z z 8 [ 1.>.^ E n x x p m v ) %.+.E ^ Y x i +         G ",
"G           < R ' ! R q b b b q 9 q O.;...-.,.o.~ ! U 0 { =.;.o.! ! ' ' ' ! E R R ! ' ' ! E R b b 9 O.3.<.{ ' Q R I q T R } :.$.! ' ~ R b 2         G ",
"h           6 b ! _ E b b b b b 9 b _ | ] { | { ' W b b b R R R b b b b b b b b b b b b b b b b b R { *.o._ ] ! R b b 9 b R E E E E R b 5 .         G ",
"r             z 9 9 z z s v v d x c b b b R R R b b 8 z j N N N N N N N N j j M M M v v v v m d s z b R R b b b b z s j j j d x 9 9 z $             h ",
"h             c 9 9 8 s N H Z Z M 8 0 9 9 q q 9 9 9 8 s Z K J K K K K J J H Z Z Z H Z N Z H J N j x 0 9 9 9 9 0 9 8 d Z Z Z N v 9 b z O           r V ",
"G             c q b z d H L L L Z M v v B B B B B B M N L L L L L L L L L L L K L L L K K L L J Z N v x x x v v v m N J L J N v b b z o         f G G ",
"G G           b b b z j H L L K H A Z Z A A A H H H H H K K K K K K K K K K J H K K K K K K K K K K Z l j j N Z Z Z A K L H M c b E z o         g G G ",
"V G           b R b z d J P L L Z N N Z Z Z l Z Z Z Z Z Z Z Z k j Z Z Z Z Z N N Z Z Z N Z Z Z Z Z Z l j d j k Z A H J J Z j d z U E z o         g G G ",
"V G           b E b 8 p N Z Z N k j j k k j d j j k k j j j j p u j k k N k j j j j d d j j j j j j j p u u j k Z N Z N j u y 8 R ! 8 o         g G C ",
"V G           b Q b z i u u u u p j j j j u u p d j j j j j j p u d j j j j j p u u u u p d d d d d p u u u p d j j d d u y 2 7 R _ 8 o         t g h ",
"V G .         8 Q b z i y u p u p j j j j u u d j j j j j j j p u d j j j j j j d u u u d j j j j j p u u j d j j j d u u y 2 7 R _ 8 o         f h f ",
"G G .         8 E b 8 i u d j j j j j j j p u d j j j j j j j p u d j j j j j j j p u u j j j j j j d u d j j j j j j u u y 2 6 b ! 8 o         f h h ",
"G G .         8 U b 8 4 u d j j j j j j j p u d j j j j j j j u u j j j j j j j j p u u j j j j j j p u d j j j j j d u u y 2 6 b _ 8 o         r g h ",
"G G           i b b 8 4 u j j j j j j j j p u p j j j j j j d u u j j j j j j j j p u u j j j j j d u u d j j j j j d u y 2 2 6 b E z o         f h h ",
"G G           i b b 8 4 u d j j j j j j j p u p j j j j j j d u u j j j j j j j j u u u d j j j j d u u d j j j j j d u 4 2 2 6 9 b z o         f G F ",
"G G           i b b 8 6 y p j j j j j j j u y p j j j j j j d u u d j j j j d d p u u u u d j j j d u u p d d j j j d u 2 2 2 6 8 R z o         h G G ",
"G G           i b b 8 6 4 u j j j j j j j u y u j j j j d d p u u d j j j d d u u u u u u d j j j d u u u u u d j d u y 2 1 2 6 9 E z o         g G G ",
"G G           i n U 8 6 4 y p j j j j j j i y u d j j j u u u u u d j j j d d u u u u u u d j j j p u u u u u d d p y 4 2 2 2 6 9 E z .         g G G ",
"G G           i _ ! b 4 2 2 u d d j j j j u 4 y d j j j u u u u u u d j j d u u u u u u u d j j j p y u u u u u u u y 2 2 2 4 3 z W z o         f V G ",
"h h           i W ! c 4 1 2 y u d d j j j y 4 y p d d d u y y y y u d j j p u y y y u u u d j j d u y u u u u u u u y 2 2 2 4 4 z ! z .         g h h ",
"r r           i b b 8 4 2 2 2 y u u j j d y 4 u u u u u 4 4 4 2 4 y p d p u y 4 4 4 u u u u u u u y y u u u u u u u 4 2 2 4 4 4 z ! z o         a f g ",
"h h           8 b b 8 6 3 1 1 2 y u u u u y 4 y u u u u 4 2 2 3 4 4 4 4 4 3 4 2 2 4 u u u u u y 4 2 4 u u u u u y 2 2 2 2 4 4 4 z W z o         f V V ",
"G G           8 R b 8 6 4 2 2 2 4 u u u u 4 4 4 y y y 4 2 2 2 2 4 4 4 4 4 4 2 2 2 4 y u u u u 4 2 2 4 u u u u u 4 2 1 2 2 4 4 4 8 E b o         g G G ",
"G G           8 R b 8 6 4 2 2 2 2 4 4 y 4 4 2 2 4 4 4 4 2 2 2 2 2 2 2 4 4 2 2 2 2 2 4 y y y y 4 2 2 4 y y y y 4 2 2 1 2 2 2 4 4 8 b b o         g G G ",
"G G           z b b 8 6 4 2 1 1 1 2 1 2 2 2 2 2 2 2 2 2 1 1 1 1 2 2 2 2 2 2 1 1 1 2 2 2 2 2 2 2 2 2 4 4 4 4 2 2 2 2 1 1 2 2 4 4 8 b b o         g G G ",
"G G           i b b 8 6 4 2 2 2 1 1 1 1 2 2 2 2 2 2 2 2 1 1 1 1 2 2 1 1 1 1 1 1 2 2 1 2 2 2 2 2 1 2 2 2 2 2 2 2 1 1 1 1 2 2 4 4 8 b b o         g G G ",
"G G           i n b 8 6 4 2 2 2 2 2 1 1 1 1 1 2 1 1 1 2 1 1 1 1 2 2 2 1 1 1 1 1 2 2 1 1 1 1 1 1 1 1 2 2 2 2 2 1 1 1 1 1 2 2 4 4 8 b b o         g G G ",
"G G           i E b 8 6 4 2 2 1 1 1 1 1 1 1 1 1 1 1 2 2 2 1 1 1 2 2 2 1 1 1 1 1 1 1 1 1 1 1 1 1 1 1 1 1 1 2 2 2 1 1 1 1 2 4 4 4 8 b b o         g G G ",
"G G           s W b 8 4 4 2 2 2 1 1 1 1 1 1 1 1 1 1 1 1 2 2 2 1 2 1 1 1 1 1 2 2 1 1 1 1 1 1 1 1 1 1 2 2 1 1 1 1 1 1 1 2 2 4 4 3 8 b b o         f G G ",
"G G           s E b 8 6 4 2 2 2 1 1 1 1 1 1 1 1 1 1 1 1 1 1 2 2 2 1 1 1 1 1 2 2 1 1 1 1 1 1 1 1 1 1 2 2 1 1 1 1 1 1 1 2 2 4 4 4 6 b b o         g G G ",
"G G           z E b 8 6 4 2 2 2 2 1 1 1 1 1 2 2 2 1 1 1 1 1 1 1 2 2 1 1 1 1 2 2 1 1 2 2 1 1 1 1 1 1 1 2 1 1 1 1 1 1 2 2 2 4 4 2 6 b b o         g G G ",
"G G           z R b 8 6 4 2 2 2 2 1 1 1 1 1 1 2 2 1 1 1 1 1 1 1 1 2 1 1 1 1 1 1 2 2 2 2 1 1 1 1 1 1 1 2 1 1 1 1 1 1 2 2 2 4 4 4 6 b b o         h G G ",
"G G           8 R b 8 6 4 2 2 2 2 2 1 1 1 1 1 2 1 1 1 1 1 1 1 1 1 1 1 1 2 2 2 2 1 1 1 1 1 2 2 2 1 1 1 1 1 1 1 1 1 1 2 2 2 4 2 2 6 b b o         g G G ",
"G G           8 E b 8 6 4 2 2 2 2 2 1 1 1 1 2 2 1 1 1 1 1 1 1 1 1 1 1 1 1 1 2 2 1 1 1 1 1 1 2 2 1 1 1 1 1 1 1 1 1 1 2 2 2 4 2 2 6 b b o         g G G ",
"f f           8 R R 8 6 4 2 3 2 2 1 1 1 1 1 2 1 1 1 2 2 2 2 2 1 1 1 1 1 1 1 1 1 1 1 1 1 1 1 1 1 1 1 2 1 1 1 1 1 1 2 2 2 2 4 4 2 6 b E o         f G G ",
"e e           8 R R z 6 4 2 2 2 1 1 1 1 1 1 1 1 1 1 2 2 2 2 2 1 2 1 1 1 1 1 1 1 1 1 1 1 1 1 1 1 1 1 2 2 2 2 1 1 1 2 2 2 2 4 4 2 6 b E o         r g g ",
"h h           8 R R z 6 4 2 2 2 1 1 1 1 1 1 1 1 1 1 1 2 2 2 1 1 2 2 1 1 1 1 1 1 2 2 1 1 1 1 1 1 1 2 2 2 2 2 2 1 1 1 2 2 2 4 4 3 6 b E o         e r r ",
"G G           8 R R z 6 4 2 2 2 1 1 1 1 1 1 1 1 1 1 1 1 2 1 1 1 2 2 1 1 1 1 1 1 2 2 1 1 1 1 1 1 1 1 2 2 2 2 2 1 1 1 2 2 2 4 4 3 7 b W o         : e e ",
"G G           8 R R 8 3 4 2 2 2 1 1 1 1 2 2 1 2 1 1 1 1 2 2 1 1 2 1 1 1 1 2 2 1 2 1 1 1 1 2 2 1 1 1 2 1 1 1 1 1 1 1 2 2 4 4 2 3 8 b W o         a h h ",
"G G           z R R 8 3 4 2 2 2 2 1 1 1 1 2 2 2 1 1 1 1 1 2 1 1 1 1 1 1 2 2 2 1 1 1 1 1 2 2 2 2 1 1 1 1 1 1 1 1 1 1 2 2 4 4 2 3 8 ! W o         g G G ",
"G G           i E E 8 4 4 4 2 2 1 1 1 1 1 1 1 1 1 1 1 1 1 1 1 1 1 1 1 1 1 1 1 1 1 1 1 1 1 1 1 1 1 1 1 1 1 1 1 1 1 1 2 2 4 2 2 1 8 ' E o         g G G ",
"G G           i E E 8 4 4 4 2 2 1 1 1 1 2 1 1 1 1 1 1 1 1 2 1 1 1 1 1 2 1 1 1 1 1 1 1 2 1 1 1 1 1 1 1 1 1 2 1 1 1 1 2 4 4 2 2 1 8 ! E o         g G G ",
"G G           i E E 8 4 4 4 2 2 1 1 2 2 2 2 2 1 1 2 1 2 2 2 1 1 1 1 2 2 1 1 1 1 1 1 2 2 1 1 1 1 1 2 1 2 2 2 1 1 1 1 2 4 4 2 2 3 8 E b o         g G G ",
"G G X         i E E 8 4 4 4 2 2 1 1 1 2 2 2 1 1 1 2 2 2 2 2 1 1 1 1 2 2 1 1 1 1 1 1 2 2 2 1 1 1 1 2 2 2 2 2 1 1 1 1 2 4 4 2 2 3 8 E b o         g G G ",
"G G .         s E R 8 3 4 2 2 2 1 1 1 2 2 2 1 1 1 1 2 2 2 2 1 1 1 1 1 2 2 2 2 2 1 1 1 2 1 2 2 1 1 1 2 2 2 2 1 1 2 1 2 4 4 2 2 5 8 b b o         g G G ",
"G G .         s E R 8 3 4 2 2 2 1 1 1 2 2 2 1 1 1 1 1 1 2 2 1 1 1 1 2 2 1 1 2 2 1 1 2 2 1 1 2 2 1 1 1 1 2 2 1 1 1 2 2 4 4 2 2 5 8 b b o         g G G ",
"G G .         z W b 8 3 4 2 2 2 1 1 1 1 2 2 1 1 1 1 1 1 1 1 1 1 1 1 2 2 1 1 1 1 1 1 2 2 1 1 1 1 1 1 1 1 1 1 1 1 2 2 2 4 4 2 2 3 8 b b o         g G G ",
"h V           z R b 8 3 4 2 2 2 1 1 1 1 1 1 1 1 1 1 1 1 1 1 1 1 1 1 1 2 1 1 1 1 1 1 1 1 1 1 1 1 1 1 1 1 1 1 1 1 1 2 2 4 4 2 2 3 8 b b o         h G G ",
"h V           c U b 8 4 4 2 2 2 1 1 1 1 1 1 1 1 1 1 2 2 1 1 1 1 1 1 2 2 1 1 1 1 1 1 1 1 1 1 1 1 1 1 2 2 1 1 1 1 1 2 2 4 4 2 2 5 8 b b o         f G G ",
"G G           b U b 8 4 4 4 2 2 1 1 1 1 2 1 1 1 1 1 2 2 1 1 1 1 1 1 2 2 1 1 1 1 1 1 1 1 1 1 1 1 1 1 2 2 1 1 1 1 1 2 2 2 4 2 2 5 8 b b o         h G G ",
"G G           b R b 7 4 4 3 2 2 1 1 2 1 2 2 1 1 1 1 1 1 1 1 2 2 1 1 1 2 1 1 1 1 1 1 2 2 2 2 2 1 1 1 1 1 1 1 2 2 1 2 2 2 4 2 2 6 8 b b o         f G G ",
"G h           b R b 7 2 2 2 2 2 1 1 1 2 2 2 1 1 1 1 1 1 1 1 2 2 1 1 1 1 1 1 1 1 1 1 2 1 2 2 2 2 1 1 1 1 1 1 2 2 1 2 2 2 4 2 2 6 8 b b o         g G G ",
"G &         X b R b 7 2 2 4 4 2 1 2 2 2 2 2 2 2 1 1 1 1 2 2 2 2 2 2 2 1 2 2 2 2 1 1 1 1 2 2 2 2 1 1 1 1 1 2 2 2 2 2 2 2 4 2 2 6 8 b b O           f V ",
"G           @ c b b 7 2 2 2 2 2 1 1 1 1 1 1 1 1 1 1 1 1 1 1 1 1 1 1 1 1 1 2 1 1 1 1 1 1 2 2 2 1 1 1 1 1 1 1 1 1 1 2 2 2 2 2 2 6 8 b c =           G h ",
"G           y z 9 9 6 2 2 2 > > > > > 1 1 1 > > > > > > > > > > > > > 1 1 1 1 1 1 1 1 1 2 1 1 1 > > > > > 1 1 1 1 2 2 2 2 2 2 5 8 9 c z             G ",
"G         O x b 0 b 9 8 8 8 7 6 6 6 6 6 6 6 6 6 6 6 6 6 6 6 3 6 3 3 5 5 5 3 1 1 > > > 1 1 1 2 3 6 6 6 6 6 6 5 3 5 3 5 5 5 3 6 8 8 b b z -           G ",
"G         8 b b E o.X.' W E E b b b b b b b b W W E S b b b b b b b n b b 8 8 6 6 6 6 6 6 6 8 b b b b b b b b b b b b b b b b b b R b b m w         G ",
"G         E E _ =.2.,.=.] W W W E W E R E E ' o.o.{ ' ! R E ! _ ! ' ' _ W E E W Q W W W ! ! ! ! W W W W W W W W W ! _ _ _ ' _ _ ' ' ' ! R q         G ",
"G         b b E E b b b b b b b b b b b b b b b b E E R b b b b b R R b b b b b b b b b b b b b b b b b b b b b b b b b b S R R R R E b 8 ,         G ",
"G         o 6 n c 8 8 9 b b b b c c c z c c c z c c n c z z c c c c c c c c c c c c c b b 9 b b b b b 9 9 9 9 9 9 9 b b b b b b z z z , .           G ",
"G             * x b 9 9 9 9 9 z z x x x x x x x x x x x x x x x x x x x x x x x x x x z b 9 9 9 9 9 9 9 9 9 9 9 9 9 9 9 9 9 8 5 * o                 G ",
"G                                                                                                                                                   G ",
"G ;                                                                                                                                               g G ",
"G G +                                                                                                                                         ; G G G ",
"G G G h &                                                                                                                                 e G G G G C ",
"G G G G G G f % .                                                                                                           . X & f C G G G G G G G G ",
"G G G G G G G G G G G G G G G C V C h f g g g g g h h g h C h h h h h h h h h h h h h h V C h h h h h h h V C h h V G G G G G G G G G C V C h h h h V "
};
