/* XPM */
static char *_6c807c7486f4892812198418cc11d069NKpx8fGqqplJDRY[] = {
/* columns rows colors chars-per-pixel */
"75 75 31 1 ",
"  c black",
". c #472E1A",
"X c #492E1B",
"o c #4E2F1B",
"O c #4A2F1C",
"+ c #4B301B",
"@ c #4B301D",
"# c #4C311C",
"$ c #50341F",
"% c #543520",
"& c #593622",
"* c #573823",
"= c #5A3A23",
"- c #5C3923",
"; c #593924",
": c #5E3B25",
"> c #5F3C26",
", c #5F3F28",
"< c #613F26",
"1 c #633F29",
"2 c #653F28",
"3 c #624027",
"4 c #644026",
"5 c #634128",
"6 c #644028",
"7 c #B57277",
"8 c #6B999B",
"9 c #C69E9C",
"0 c #A5C2CD",
"q c #E4C6C8",
"w c white",
/* pixels */
"6622666666666666666666666666                    66666665>:46666666666666666",
"6666666666666666666666666666                    666<6661;:66666666666666666",
"6666666666666666666666666666                    661::::=*;:<666666666666666",
"66<:<6666666666666666666                            <<<>;;<1666666666666666",
"663<166<6666666666666666                            6666<166666666666666666",
"6666666666666666666         99999999999999999999         66666<64466661<53<",
"6666666666666666666         99999999999999999999         5666666666666<<6<1",
"66226666666666666       99qqqqqqqqqqqqqqqqqqqqqqqq99       6666666666666666",
"66666666666666666       99qqqqqqqqqqqqqqqqqqqqqqqq99       ;;;;<66666662666",
"666666666<6666     999qqqqqqqqqqqqqqqqqqqqqqqqqqqqqqqq999     >>;<666666666",
";*%%=-===*%%&:     999qqqqqqqqqqqqqqqqqqqqqqqqqqqqqqqq999     ;;%=;;>666666",
"#O.O####oX..+$     999qqqqqqqqqqqqqqqqqqqqqqqqqqqqqqqq999     ******;::>:::",
";;;;;;;;;;;;     99qqqqqqqqqqqqqqqqqqqqqqqqqqqqqqqqqqqqqq99     <<<<<<<><<<",
"6666<6666662     99qqqqqqqqqqqqqqqqqqqqqqqqqqqqqqqqqqqqqq99     66666666666",
"6556666666    999qqqqqqqqqqqqqqqqqqqqqqqqqqqqqqqqqqqqqqqqqq999    666666666",
"<666666666    999qqqqqqqqqqqqqqqqqqqqqqqqqqqqqqqqqqqqqqqqqq999    265666666",
"<66<66666<    999qqqqqqqqqqqqqqqqqqqqqqqqqqqqqqqqqqqqqqqqqq999    66<666661",
"<666666666    qqqqqqqqqqqqqqqqqqqqqqqqqqqqqqqqqqqqqqqqqqqqqqqq    651;;===;",
"<666666666    qqqqqqqqqqqqqqqqqqqqqqqqqqqqqqqqqqqqqqqqqqqqqqqq    ;;=;>>>;%",
"66666666    99qqqqqqqqqqqqqqqqqqqqqqqqqqqqqqqqqqqqqqqqqqqqqqqq99    <<61;>>",
"66666666    99qqqqqqqqqqqqqqqqqqqqqqqqqqqqqqqqqqqqqqqqqqqqqqqq99    ;;;;%=;",
"66666666    qqqqqqqqqqqqqqqqqqqqqqqqqqqqqqqqqqqqqqqqqqqqqqqqqqqq    >>><>:>",
"66666666    qqqqqqqqqqqqqqqqqqqqqqqqqqqqqqqqqqqqqqqqqqqqqqqqqqqq    6666664",
"66666     99qq999         99qqqqqqqqqqqqqqqqqqqq99         999qq99     6666",
"66666     99qq999         99qqqqqqqqqqqqqqqqqqqq99         999qq99     6666",
"66666     99qq999         99qqqqqqqqqqqqqqqqqqqq99         999qq99     6666",
"66666     99qq   wwwww      qqqqqqqqqqqqqqqqqqqq  wwww        qq99     6<<6",
":;=::     99qq   wwwww      qqqqqqqqqqqqqqqqqqqq  wwww        qq99     6,;;",
"#@O##     9999   wwwww      qqqqqqqqqqqqqqqqqqqq  wwww        9999     <;%*",
";;;;;     9999   wwwww      qqqqqqqqqqqqqqqqqqqq  wwww        9999     <<<<",
"66666     9999   wwwww      qqqqqqqqqqqqqqqqqqqq  wwww        9999     6666",
"66666     9999              qqqqqq         qqqqq              9999     6666",
"66666     9999              qqqqqq         qqqqq              9999     6666",
"66666666    99              qqq              qqq              99    6666666",
"66666666    99              qqq              qqq              99    <1<6666",
"66666666    99999         99qqq   wwwwwwwww  qqq99         99999    1<16666",
"66666666    99999         99qqq   wwwwwwwww  qqq99         99999    6666666",
"66666666    99999         99qqq   wwwwwwwww  qqq99         99999    6466666",
"6666666666    999000000099qqqqq              qqqqq990000000999    666666666",
"6666666666    999000000099qqqqq              qqqqq990000000999    666666666",
"6666666666    9990000000qqqqqqqqqqqqqqqqqqqqqqqqqqqq0000000999    666666666",
"6666666666    9990000000qqqqqqqqqqqqqqqqqqqqqqqqqqqq0000000999    666666666",
"%%%%%%%%%%%%     8800000qqqqqqqqqqqqqqqqqqqqqqqqqqqq0000088     66666666666",
"............     8800000qqqqqqqqqqqqqqqqqqqqqqqqqqqq0000088     ===========",
";;;;;;;;;;;;;;     8880099qqqqqqqqqqqqqqqqqqqqqqqq9900888     #############",
"66666666666666     8880099qqqqqqqqqqqqqqqqqqqqqqqq9900888     =%$+.........",
"66666666666666     8880099qqqqqqqqqqqqqqqqqqqqqqqq9900888     6<1:=;;;;;;;;",
"66666666666666661       8899qqqqqqqqqqqqqqqqqqqq9988       6666666666666666",
"6666666666666666>       8899qqqqqqqqqqqqqqqqqqqq9988       6666666666666666",
"6666666666666666>;<         99999999999999999999         666666666666666666",
"6666666666666666>=1         99999999999999999999         666666666666666666",
"6666666666666666<16         99999999999999999999         666666666666666666",
"6666666666666666<<6666                                666666666666666666666",
"6666666666666666>:6666                                666666666666666666666",
"6666666666666666::6     99qq                    7799     666666666666666666",
"-<666<6666666666<><     99qq                    7799     666666666666666666",
"><666666666666666     99qqqq99999999999999999999qqqq99     6666666666666666",
"666666<6666666661     99qqqq99999999999999999999qqqq99     6666666666666666",
"6666666666666661=     99qq  999qqqqqqqqqqqqqq999  qq99     66666<6666666666",
"666666666666566;%     99qq  999qqqqqqqqqqqqqq999  qq99     6666266666666666",
"666666666666663%%     99qq  999qqqqqqqqqqqqqq999  qq99     6666656666651:<<",
"66666666666661;#$     99qq  qqqqqqqqqqqqqqqqqqqq  qq99     6666666<66<:><>>",
"%%%%%%%%%%%%%$#@O     99qq  qqqqqqqqqqqqqqqqqqqq  qq99     ==========:<166<",
"#####.+#####%;%$#.#         qqqqqq99 qq 999qqqqq         #############%%%%%",
"%%%%%#*<>>>:<51<>;;         qqqqqq99  q 999qqqqq         $%;;=;&;;%$+.X....",
">>>>>:1266666666666         qqqqqq99    999qqqqq         :16666666<<:;;=;;;",
"666666666<<66666<66666      qqqqqqqq    999qqqqq      <==166666666666666666",
"6666666666666666666666      qqqqqqqq    999qqqqq      6>:666666666666666666",
"666666666666666666666666       qqqqq    999qq       666>:666666466666666666",
"666666666666666666666666       qqqqq    999qq       %%%;<666666666666666666",
"66666666666666666666666666                        ;;;;;>6666666666666666666",
"664666666666666<6666666666                        666666666<662666666666666",
"6666666666666666666666466666        6666        666666665<46666666666666662",
"666666666666666565<::::::<61        6666        666662666666666666666666666",
"6666666666666661<1;%=====;:=        ::::        :::::<1::<6666666661<1::::<"
};
