/* XPM */
static char *_0b4080e5253401cf889dc53e7812610QDRFG38VBKhAlwvt[] = {
/* columns rows colors chars-per-pixel */
"75 75 117 2 ",
"   c #462D19",
".  c #472E18",
"X  c #452F1A",
"o  c #472E1A",
"O  c #482D1A",
"+  c #492E1B",
"@  c #482F1B",
"#  c #4A2F1A",
"$  c #4E2F1B",
"%  c #4B2E1C",
"&  c #4A2F1C",
"*  c #4B301B",
"=  c #4C321B",
"-  c #4B301D",
";  c #4B321C",
":  c #4C311C",
">  c #4D311C",
",  c #4D321D",
"<  c #4E321D",
"1  c #4F331D",
"2  c #4C311E",
"3  c #4E311F",
"4  c #4D321F",
"5  c #4F331E",
"6  c #4F341F",
"7  c #51321E",
"8  c #50341E",
"9  c #50341F",
"0  c #53341F",
"q  c #4F3220",
"w  c #513520",
"e  c #533420",
"r  c #523620",
"t  c #533721",
"y  c #543520",
"u  c #553520",
"i  c #543521",
"p  c #553621",
"a  c #553622",
"s  c #563722",
"d  c #573722",
"f  c #563723",
"g  c #593622",
"h  c #5A3723",
"j  c #583724",
"k  c #573921",
"l  c #553923",
"z  c #573823",
"x  c #583821",
"c  c #5A3A21",
"v  c #593922",
"b  c #583823",
"n  c #5B3822",
"m  c #583A22",
"M  c #593B23",
"N  c #5B3B22",
"B  c #5A3A23",
"V  c #5C3923",
"C  c #5F3B23",
"Z  c #5E3C23",
"A  c #583924",
"S  c #593924",
"D  c #593825",
"F  c #583925",
"G  c #5B3824",
"H  c #593A25",
"J  c #5B3B24",
"K  c #5A3A25",
"L  c #5B3B26",
"P  c #5C3925",
"I  c #5D3A24",
"U  c #5E3B25",
"Y  c #5F3B25",
"T  c #5D3A26",
"R  c #5E3B27",
"E  c #5C3C25",
"W  c #5F3D24",
"Q  c #5D3D26",
"!  c #5C3C27",
"~  c #5F3C26",
"^  c #5E3E27",
"/  c #5D3D28",
"(  c #5F3C28",
")  c #5F3F28",
"_  c #603C24",
"`  c #613D25",
"'  c #603E25",
"]  c #633F25",
"[  c #603C26",
"{  c #603D27",
"}  c #613D27",
"|  c #613F26",
" . c #623E26",
".. c #633F27",
"X. c #643F25",
"o. c #643E27",
"O. c #633D28",
"+. c #613E28",
"@. c #623E28",
"#. c #623F29",
"$. c #633F29",
"%. c #623D2A",
"&. c #653F28",
"*. c #653F2A",
"=. c #624027",
"-. c #644026",
";. c #654026",
":. c #654127",
">. c #634128",
",. c #63402A",
"<. c #644028",
"1. c #654129",
"2. c #664029",
"3. c #644229",
"4. c #64402A",
"5. c #64412B",
"6. c #65412B",
/* pixels */
"<.<.&.&.<.<.<.<.<.<.<.<.<.<.<.<.<.<.<.<.<.<.<.<.<.<.<.<.<.<.<.<.<.<.<.<.<.<.<.<.<.<.<.<.<.<.<.<.<.<.<.<.<.<.<.>.~ U -.<.<.<.<.<.<.<.<.<.<.<.<.<.<.<.<.",
"<.<.<.<.<.<.<.<.<.<.<.<.<.<.<.<.<.<.<.<.<.<.<.<.<.<.<.<.<.<.<.<.<.<.<.<.<.<.<.<.<.<.<.<.<.<.<.<.<.<.<.| <.<.<.$.S U <.<.<.<.<.<.<.<.<.<.<.<.<.<.<.<.<.",
"<.<.<.<.<.<.<.<.<.<.<.<.<.<.<.<.<.<.<.<.<.<.<.<.<.<.<.<.<.<.<.<.<.<.<.<.<.<.<.<.<.<.<.<.<.<.<.<.<.<.$.U U U U B z S U | <.<.<.<.<.<.<.<.<.<.<.<.<.<.<.",
"<.<.| U | <.<.<.<.<.<.<.<.<.<.<.<.<.<.<.<.<.<.<.<.<.<.<.<.<.<.<.<.<.<.<.<.<.<.<.<.<.<.<.<.<.<.<.<.<.$.~ | | | ~ S S | $.<.<.<.<.<.<.<.<.<.<.<.<.<.<.<.",
"<.<.=.| $.<.<.| <.<.<.<.<.<.<.<.<.<.<.<.<.<.<.<.<.<.<.<.<.<.<.<.<.<.<.<.<.<.<.<.<.<.<.<.<.<.<.<.<.<.<.<.<.<.<.<.| $.<.<.<.<.<.<.<.<.<.<.<.<.<.<.<.<.<.",
"<.<.<.<.<.<.<.<.<.<.<.<.<.<.<.<.<.<.<.<.<.<.<.<.<.<.<.<.<.<.<.<.<.<.<.<.<.<.<.<.<.<.<.<.<.<.<.<.<.| <.<.<.<.-.<.<.<.<.<.<.<.| <.-.-.<.<.<.<.$.| >.=.| ",
"<.<.<.<.<.<.<.<.<.<.<.<.<.<.<.<.<.<.<.<.<.<.<.<.<.<.<.<.<.<.<.<.<.<.<.<.<.<.<.<.<.<.<.<.<.<.<.<.&.&.<.<.<.<.<.$.| >.<.<.<.<.<.<.<.<.<.<.<.<.| | <.| $.",
"<.<.&.&.<.<.<.<.<.<.<.<.<.<.<.<.<.<.<.<.<.<.<.<.<.<.<.<.<.<.<.<.<.<.<.<.<.<.<.<.<.<.<.<.<.<.<.<.<.<.<.<.<.<.<.~ ~ >.<.<.<.<.<.<.<.<.<.<.<.<.<.<.<.<.<.",
"<.<.<.<.<.<.<.<.<.<.<.<.<.<.<.<.<.<.<.<.<.<.<.<.<.<.<.<.<.<.<.<.<.<.<.<.<.>.<.<.<.<.<.<.<.<.<.<.<.<.<.| <.<.<.( U <.$.S S S S | <.<.<.<.<.<.<.&.<.<.<.",
"<.<.<.<.<.<.<.<.<.| <.<.<.<.-.<.<.<.<.<.<.<.<.<.<.<.<.<.<.<.<.<.| <.<.<.<.<.<.<.<.<.<.<.<.<.<.<.<.<.<.<.<.<.<.( B S U ~ ~ ~ ~ ~ S | <.<.<.<.<.<.<.<.<.",
"S z y y B V B B B z y y g U B z S S S S S S S S S S S S S S S S S S S S S S S S S S S S S S S S S S S S ~ S S y < 9 S S ~ S S S y B S S ~ <.<.<.<.<.<.",
"< & o & < < < < $ + o o * 9 < < z z z z z z z z S ( ~ ~ S z B B S S z z z S ~ S z z z z z z z z z z z z z z z < < t z z z z z z z z z z S U U ~ U U U ",
"S S S S S S S S S S S S S S B z | | | | | | | | $.&.&.<.| | $.| $.| | ~ | $.<.| | | | | | | | | | | | | | | | S B | | ~ | | $.| | | | | | | | ~ | | | ",
"<.<.<.<.| <.<.<.<.<.<.&.<.<.~ U <.<.<.<.<.<.<.<.<.<.<.<.<.<.<.<.<.<.<.<.<.<.<.<.<.<.<.<.<.<.<.<.<.<.<.<.<.<.<.| $.<.<.<.<.<.<.<.<.<.<.<.<.<.<.<.<.<.<.",
"<.>.>.<.<.<.<.<.<.<.<.-.>.<.| $.<.<.<.<.<.<.<.<.<.<.<.<.<.<.<.<.<.<.<.<.<.<.<.<.<.<.<.<.<.<.<.<.<.<.<.<.<.<.<.<.<.<.<.<.<.<.<.>.<.<.<.<.<.<.<.<.<.<.<.",
"| <.<.<.<.<.<.<.<.<.<.<.<.<.| <.<.<.<.<.<.<.<.<.<.<.<.<.<.<.<.<.<.<.<.<.<.<.<.<.<.<.<.<.<.<.<.<.<.<.<.<.<.<.&.<.<.&.<.<.<.<.-.<.<.X.&.<.>.<.<.<.<.<.<.",
"| <.<.| <.<.<.<.<.| <.<.<.<.<.<.<.<.<.<.<.<.<.<.<.<.<.<.<.<.<.<.<.<.<.<.<.<.<.<.<.<.<.<.<.<.<.<.<.<.<.<.<.<.<.<.<.<.<.<.<.<.<.&.<.<.<.<.| <.<.<.<.<.$.",
"| <.<.<.<.<.<.<.<.<.<.<.<.<.<.<.<.<.<.<.<.<.<.<.<.<.<.<.<.<.<.<.<.<.<.<.<.<.<.<.<.<.<.<.<.<.<.<.<.<.<.<.<.<.<.<.<.<.<.<.<.<.<.<.<.<.<.>.$.S S B B B S ",
"| <.<.<.<.<.<.<.<.<.<.<.<.>.$.| <.<.<.<.<.<.<.<.<.<.<.<.<.<.<.<.<.<.<.<.<.<.<.<.<.<.<.<.<.<.<.<.<.<.<.<.<.<.<.<.<.<.<.<.<.<.<.<.<.$.S S B S ~ ~ ~ S y ",
"<.<.<.<.<.<.<.<.<.<.<.<.<.>.~ U <.<.<.<.<.<.<.<.<.<.<.<.<.<.<.<.<.<.<.<.<.<.<.<.<.<.<.<.<.<.<.<.<.<.<.<.<.<.<.<.<.<.| S S S B S B S S ~ | | <.$.S ~ ~ ",
"<.<.<.<.<.<.<.<.<.<.<.<.<.<.| Z <.<.<.<.<.| <.<.<.<.<.<.<.<.<.<.<.<.<.<.<.<.<.<.<.<.<.<.<.<.<.<.<.<.<.<.<.<.<.<.&.<.$.~ ~ ~ ~ ~ ~ ~ ~ S S S S S y B S ",
"<.<.<.<.<.<.<.<.<.<.<.<.<.$.S U <.<.<.<.<.<.<.<.<.<.<.<.<.<.<.<.<.<.<.<.<.<.<.<.<.<.<.<.<.<.<.<.<.<.<.<.<.<.<.<.<.<.<.<.<.<.<.<.<.<.$.~ ~ ~ ~ | ~ U ~ ",
"<.<.<.<.<.<.<.<.<.<.<.<.$.S B S U U U U | <.<.<.<.<.<.<.<.<.<.<.<.<.<.<.<.<.<.<.<.<.<.<.<.<.<.<.<.<.<.<.<.<.<.<.<.<.<.<.<.<.<.<.-.-.-.<.<.<.<.<.<.<.-.",
"<.<.<.<.<.<.<.<.| <.<.<.| | S g U | | | $.<.<.<.<.<.<.<.<.<.<.<.<.<.<.<.<.<.<.<.<.<.<.<.<.<.<.<.<.<.<.<.<.<.<.<.<.<.<.<.<.<.<.<.<.<.<.<.<.<.<.<.<.<.<.",
"<.<.<.<.<.<.<.-.<.| <.<.&.<.| U $.<.<.<.-.<.<.| <.<.<.<.<.<.<.<.<.<.<.<.<.<.<.<.<.<.<.<.<.<.<.<.<.<.<.<.<.<.<.<.<.<.<.<.<.<.<.<.<.<.<.<.<.<.<.<.<.<.<.",
"<.<.<.<.<.<.<.<.<.<.<.<.&.<.U j <.<.<.<.<.<.<.<.<.<.<.<.<.<.<.<.<.<.<.<.<.<.<.<.<.<.<.<.<.<.<.<.<.<.<.<.<.<.<.<.<.<.<.<.| | <.<.<.<.| <.<.<.<.<.<.<.<.",
"<.<.<.<.<.<.<.<.<.<.<.<.<.$.y 9 U | <.<.<.<.| <.<.<.<.<.<.<.<.<.<.<.<.<.<.<.<.<.<.<.<.<.<.<.<.<.| <.<.<.<.<.<.<.<.<.<.<.<.<.<.<.<.<.<.<.<.<.<.<.| | <.",
"U S B U U B y y y y y y y 9 * + < 7 y y y y y y S ~ U U U U | <.<.<.<.<.<.<.<.<.$.U U U U B y y y y y y y y y y y y y y y y B ~ ~ U | <.<.| <.<.( S S ",
"< - & < < - + o o o o o o o o o o o o o o o o o & < < < < < < y y y y y y y y y 9 < < < < - o o o o o o + o o o + o o o o < y B S | | <.-.<.<.| S y z ",
"S S S S S S S S S S S S S S S S S S S S S S S S S S S S S S S S S S S S S S S S S S S S S S S S S S y 9 9 - < y S S S S S S | ~ $.<.| <.<.| <.| | | | ",
"<.<.<.<.<.<.<.<.-.-.<.<.<.<.<.<.<.<.<.<.<.<.<.<.<.<.<.<.<.<.<.<.<.<.<.<.<.<.<.<.<.<.<.<.<.<.<.<.<.-.| | | y t $.>.<.<.<.<.<.<.<.<.<.<.<.<.<.<.<.<.<.<.",
"<.<.<.<.<.<.<.<.<.<.<.<.<.<.<.<.<.<.<.<.<.<.<.<.<.<.<.<.<.<.<.<.<.<.<.<.<.<.<.<.<.<.<.<.<.<.<.<.<.<.<.<.<.z y <.<.<.<.<.<.<.<.<.<.<.<.<.<.<.<.<.<.<.<.",
"<.<.<.<.<.<.<.<.<.<.<.<.<.<.<.<.<.<.<.<.<.<.<.<.<.<.<.<.<.&.<.<.$.U U U | <.<.<.<.<.<.-.<.<.<.<.<.<.<.<.$.y 6 | | &.-.-.<.<.<.<.<.<.<.<.<.<.| <.<.<.<.",
"<.<.<.<.<.<.<.<.<.<.<.<.<.<.<.<.<.<.<.<.<.<.<.<.<.| <.$.U | $.~ B y B B S U U Z U | $.U U | $.U U ~ U S S < q S U | <.-.<.<.<.<.<.<.<.<.<.<.<.<.<.<.<.",
"<.<.<.<.<.<.<.<.<.<.<.<.<.<.<.<.<.<.<.<.<.<.<.<.<.&.<.=.| $.$.| | | | | | | | ~ | $.$.| | $.| | | | ~ B t & 9 B y S | <.| U U U U | $.U | $.| <.<.<.<.",
"<.<.<.<.<.<.<.<.<.<.<.<.<.<.<.<.<.<.<.<.<.<.<.<.<.<.<.<.<.<.<.<.<.<.<.<.<.<.<.<.<.<.<.<.<.<.<.<.>.<.<.$.B < < 9 U | $.<.=.| | | ~ $.=.| $.| $.<.<.<.<.",
"<.<.<.<.<.<.<.<.<.<.<.<.<.<.<.| <.<.<.<.<.<.<.<.<.<.<.<.<.<.<.<.<.<.<.<.<.<.<.<.>.<.<.<.$.S ~ <.$.S S S S y < t $.<.<.<.<.<.<.<.<.<.<.<.<.<.<.<.<.<.<.",
"<.<.<.<.<.<.<.<.<.<.<.<.<.<.<.| <.<.<.<.<.<.<.<.<.<.&.<.<.<.<.<.<.<.<.<.<.<.<.<.<.<.<.-.$.U $.<.$.~ ~ ( ~ B < y <.<.<.<.<.<.<.| <.<.-.<.<.-.<.<.<.<.<.",
"<.<.<.<.<.<.<.<.<.<.<.<.<.<.<.| U U U U U U U U U U | <.<.<.<.<.<.<.<.| <.<.<.<.<.-.<.<.<.<.<.&.<.<.<.<.<.~ < 9 | <.<.<.<.<.<.<.<.<.<.<.<.<.<.<.<.<.<.",
"<.<.<.<.<.<.<.<.<.<.<.<.<.<.<.| | | | | | | | | | | $.<.<.<.<.<.<.<.<.<.<.<.<.<.&.<.<.<.<.<.-.<.<.<.&.<.<.~ < < S U U U | <.<.&.<.<.<.<.<.<.<.<.<.<.<.",
"<.<.<.<.<.<.<.<.<.<.<.<.<.<.<.<.<.<.<.<.<.<.<.<.<.<.<.<.<.<.<.<.<.<.<.<.<.<.<.<.<.<.<.<.<.<.<.<.<.<.$.| =.| < t | | ~ | $.<.<.<.<.<.<.<.<.<.<.<.<.<.<.",
"<.<.<.<.<.<.<.<.<.<.<.<.<.<.<.<.<.<.<.<.<.<.>.<.<.<.<.<.<.<.<.<.<.<.<.<.<.<.<.<.<.<.<.<.<.<.<.<.| | $.$.<.~ < 9 | <.<.<.<.-.-.<.<.<.<.<.<.<.<.<.<.<.<.",
"y y y y y y y y y y y y y y y y 9 y y 9 y y y y y y y y y y y y y y y y y y y y B U U U U | <.<.<.&.<.| B B < < ~ <.<.<.<.<.<.<.<.<.<.<.<.<.<.<.<.<.<.",
"o o o o o o o o o o o o o o o o o o o o o o o o o o o o o o o o o o o o o o o o & < < < < 7 y y y y y < < < & & y B S B B B B B B B B B B B B B B B B ",
"S S S S S S S S S S S S S S S S S 6 < S S S S S S S S S S S S S B S S S S S y 9 < o o + o o o o o o o o o o o o + < < < < < < < < < < < < < < < < < < ",
"<.<.<.<.<.<.<.<.<.<.<.<.<.<.<.<.-.z y <.<.<.<.<.<.<.<.<.<.<.<.<.| <.<.&.<.<.=.| U S S S S S S S S S B S S S S S S S S S S S B y 9 * o o o o o o o o o ",
"<.<.<.<.<.<.<.<.<.<.<.<.<.<.<.<.<.| ~ <.<.<.<.<.<.<.<.<.<.<.<.<.<.<.<.<.<.<.<.<.<.<.<.<.<.<.<.<.<.<.<.<.<.<.<.<.<.<.<.<.<.&.<.| $.U B S S S S S S S S ",
"<.<.<.<.<.<.<.<.<.<.<.<.<.<.<.<.$.| <.<.<.<.<.<.<.<.<.<.<.<.<.<.<.<.<.<.<.<.<.<.<.<.<.<.<.<.<.<.<.<.<.<.<.<.<.<.<.<.<.<.<.<.<.<.<.<.<.<.<.<.<.<.<.<.<.",
"<.<.<.<.<.<.<.<.<.<.<.<.<.<.<.<.~ U <.<.<.<.<.<.<.<.<.<.<.<.<.<.<.<.<.<.<.<.| <.<.<.<.<.<.<.<.<.<.<.<.<.<.<.<.<.<.<.<.<.<.<.<.<.<.<.<.<.<.<.<.<.<.<.<.",
"<.<.<.<.<.<.<.<.<.<.<.<.<.<.<.<.~ S | $.U U | <.$.U U U U U U U U U U U | <.$.| -.<.<.$.$.<.<.-.<.<.<.<.<.<.<.<.<.<.<.<.<.<.<.<.<.<.<.<.<.<.<.<.<.<.<.",
"<.<.<.<.<.<.<.<.<.<.<.<.<.<.<.<.~ B $.| | | $.<.>.| ~ | | | | | | | | ~ $.<.$.$.<.<.<.| | <.<.<.<.<.<.<.<.<.<.<.<.<.<.<.<.<.<.<.<.<.<.<.<.<.<.<.<.<.<.",
"<.<.<.<.<.<.<.<.<.<.<.<.<.<.<.<.| $.<.| <.<.<.<.<.<.<.<.<.<.<.<.<.<.<.<.<.<.<.<.<.<.<.<.<.<.<.<.<.<.<.<.<.<.<.<.<.<.<.<.<.<.<.<.<.<.<.<.<.<.<.<.<.<.<.",
"<.<.<.<.<.<.<.<.<.<.<.<.<.<.<.<.| | <.<.<.<.<.<.<.<.<.<.<.<.<.<.<.<.<.<.<.<.<.<.<.<.<.<.<.<.<.<.<.<.<.<.<.<.<.<.<.<.<.<.<.<.<.<.<.<.<.<.<.<.<.<.<.<.<.",
"<.<.<.<.<.<.<.<.<.<.<.<.<.<.<.<.~ U <.<.<.<.<.<.<.<.<.<.<.<.<.<.<.<.<.<.<.<.<.<.<.<.<.<.<.<.<.<.<.<.<.<.<.<.<.<.<.<.<.<.<.<.<.<.<.<.<.<.<.<.<.<.<.<.<.",
"<.<.<.<.<.<.<.<.<.<.<.<.<.<.<.<.U U <.<.<.<.&.<.<.<.<.<.<.<.<.<.<.<.<.<.<.<.<.<.<.<.<.<.<.<.<.<.<.<.<.<.<.<.<.<.<.<.<.<.<.<.<.<.<.<.<.<.<.<.<.<.<.<.<.",
"V | <.<.<.| <.<.<.<.<.<.<.<.<.<.| ~ | <.<.<.<.<.<.<.<.<.<.<.<.<.<.<.<.<.<.<.<.<.<.<.<.<.<.<.<.<.<.<.<.<.<.<.<.<.<.<.<.<.<.<.<.<.<.<.<.<.<.<.<.<.<.<.<.",
"~ | <.<.<.<.<.<.<.<.<.<.<.<.<.<.<.~ S U U U U U ~ U U | <.$.U U U | <.<.<.<.<.| <.<.| <.<.<.<.X.<.<.<.<.<.| <.&.<.<.<.<.<.<.<.<.<.<.<.<.<.<.<.<.<.<.<.",
"<.<.<.<.<.<.| <.<.<.<.<.<.<.<.<.$.B B B U | | S B U | $.-.| | | | $.<.<.| <.<.<.<.<.<.<.<.| <.<.<.<.<.<.<.<.<.<.<.<.<.<.<.<.<.<.<.<.<.<.<.<.<.<.<.<.<.",
"<.<.<.<.<.<.<.<.<.<.<.<.<.<.<.$.B U | | $.>.>.| | $.<.<.<.&.<.| <.| | <.<.<.<.<.<.<.<.<.<.<.<.<.<.<.<.<.<.<.<.<.<.<.<.<.<.<.<.<.| <.<.<.<.<.<.<.<.<.<.",
"<.<.<.<.<.<.<.<.<.<.<.<.>.<.<.S y $.<.&.&.-.<.<.<.<.<.<.<.| <.<.<.<.<.<.<.<.<.<.&.<.<.<.<.<.<.<.<.<.<.<.<.<.<.<.<.<.<.<.<.<.<.&.<.<.<.<.<.<.<.<.<.<.<.",
"<.<.<.<.<.<.<.<.<.<.<.<.<.<.=.y y <.<.-.&.-.<.<.<.<.<.<.<.<.<.<.<.| <.<.<.<.<.<.<.<.<.<.<.<.<.<.<.<.<.<.<.<.<.<.<.| | <.<.<.<.<.>.<.<.<.<.<.>.$.U | | ",
"<.<.<.<.<.<.<.<.<.<.<.<.<.$.S < 9 U | -.<.<.<.<.<.<.<.| <.<.<.<.<.<.<.<.<.<.<.<.<.<.<.<.<.<.<.<.<.<.<.| | <.<.<.<.<.<.<.<.<.<.<.<.<.| <.<.| U ~ | ~ ~ ",
"y y y y y y y y y y y y y 9 < - & < < t t y y y y y B | <.<.$.B t y y y B | <.<.<.<.$.S y y B U U | <.<.<.<.<.<.&.| V B B B B B B B B B B U | $.<.<.| ",
"< < < < < o * < < < < < y S y 9 < o < y y * + o + o & < y y 9 * o o o o & < y y 9 y 9 * o o & < < < y y y y y y y < < < < < < < < < < < < < y y y y y ",
"y y y y y < z | ~ ~ ~ U | >.$.| ~ S S | | ~ S S S S S S S S S S S S S S S S S S S S S S S S S S S S S y 9 t < = 9 9 y S S B S g S S y 9 * o + o o o o ",
"~ ~ ~ ~ ~ U $.&.<.<.<.<.<.<.<.<.<.<.<.<.<.<.<.<.<.<.<.<.<.<.<.<.<.<.<.<.<.<.<.<.<.<.| <.<.<.<.<.<.<.<.| | | y < B U $.<.<.<.<.<.<.<.| | U S S B S S S ",
"<.<.<.>.<.<.<.<.<.| | <.<.<.<.<.| <.<.<.<.<.<.<.<.<.<.<.<.<.<.<.<.<.<.<.<.<.<.<.<.<.<.<.<.<.<.<.| <.<.<.| <.| B B $.<.<.<.<.<.<.<.<.<.<.<.<.<.<.<.<.<.",
"<.<.<.<.<.<.<.<.<.<.<.<.<.<.<.<.<.<.<.<.<.<.<.<.<.<.<.<.<.<.<.<.<.<.<.<.<.<.<.<.<.<.<.<.<.<.<.<.<.<.<.<.<.<.<.~ U <.<.<.<.<.<.<.<.<.<.<.<.<.<.<.<.<.<.",
"<.<.<.<.<.<.<.<.<.<.<.<.<.<.<.<.<.<.<.<.<.<.<.<.<.<.<.<.<.<.<.<.<.<.<.<.<.<.<.<.<.<.<.<.<.<.<.<.<.<.<.<.<.<.<.~ U <.<.<.<.<.<.-.<.<.<.<.<.<.<.<.<.<.<.",
"<.<.<.<.<.<.<.<.<.<.<.<.<.<.<.<.<.<.<.<.<.<.<.<.<.<.<.<.<.<.<.<.<.<.<.<.<.<.<.<.<.| ~ U U U B 9 y y y 9 y y y S | <.<.<.<.<.<.<.<.<.<.<.<.<.<.<.<.<.<.",
"<.<.<.<.<.<.<.<.<.<.<.<.<.<.<.<.<.<.<.<.<.<.<.<.<.<.<.<.<.<.<.<.<.<.<.<.<.<.<.<.&.| | | $.| U S S S S S S S S ~ <.<.<.<.<.<.<.<.<.<.<.<.<.<.<.<.<.<.<.",
"<.<.-.<.<.<.<.<.<.<.<.<.<.<.<.| <.<.<.<.<.<.<.<.<.<.<.<.<.<.<.<.<.<.<.<.<.<.<.<.<.<.<.<.<.<.<.<.<.<.<.<.<.<.<.<.<.<.<.| <.<.&.<.<.<.<.<.<.<.<.<.<.<.<.",
"<.<.<.<.<.<.<.<.<.<.<.<.<.<.<.<.<.<.<.<.<.<.-.<.<.<.<.<.<.<.<.-.<.<.<.<.<.<.<.<.<.<.<.<.| <.<.<.<.<.<.<.<.<.<.<.>.| -.<.<.<.<.<.<.<.<.<.<.<.<.<.<.<.&.",
"<.<.<.<.<.<.<.<.<.<.<.<.<.<.<.>.<.>.| U U U U U U | <.$.| <.<.<.<.<.<.<.<.<.<.<.<.<.<.<.&.<.<.<.<.<.<.<.<.&.<.<.<.<.<.<.<.<.<.<.<.<.<.<.<.<.<.<.<.<.<.",
"<.<.<.<.<.<.<.<.<.<.<.<.<.<.<.$.| $.S y B B B B B S U B ~ $.U U U U U U U U U U U U U U | $.U U U U U U U | $.U U | <.<.<.<.<.<.<.<.<.$.| $.U U U U | "
};
