/* XPM */
static char *_d676e327a5541f5d530131cba3a1d24foK3Pje7bDIap9AY[] = {
/* columns rows colors chars-per-pixel */
"75 75 114 2 ",
"   c #27221F",
".  c #29211F",
"X  c #272121",
"o  c #2D2322",
"O  c #312624",
"+  c #382624",
"@  c #372926",
"#  c #392A27",
"$  c #372928",
"%  c #3E2D29",
"&  c #3F302D",
"*  c #432A25",
"=  c #4C2D26",
"-  c #422D29",
";  c #542F27",
":  c #43322E",
">  c #48352F",
",  c #543027",
"<  c #52322A",
"1  c #5C362E",
"2  c #463430",
"3  c #4A3632",
"4  c #4D3933",
"5  c #513935",
"6  c #563D39",
"7  c #563C3B",
"8  c #543F3A",
"9  c #563E3A",
"0  c #573E3A",
"q  c #553D39",
"w  c #533E39",
"e  c #583F38",
"r  c #583F3A",
"t  c #5A3E3A",
"y  c #5B3F3B",
"u  c #61362D",
"i  c #663A2F",
"p  c #663A2F",
"a  c #603A31",
"s  c #633B33",
"d  c #643930",
"f  c #663A31",
"g  c #663B34",
"h  c #643C31",
"j  c #693A30",
"k  c #6A3B31",
"l  c #6A3B33",
"z  c #6B3C32",
"x  c #6A3B31",
"c  c #53403A",
"v  c #57403A",
"b  c #594039",
"n  c #59403B",
"m  c #58413B",
"M  c #5A413A",
"N  c #59403C",
"B  c #59413D",
"V  c #5A413C",
"C  c #5A413D",
"Z  c #59423C",
"A  c #5B423D",
"S  c #5A433D",
"D  c #5B433F",
"F  c #5C403C",
"G  c #5D413D",
"H  c #5C433E",
"J  c #5E423E",
"K  c #5F433F",
"L  c #5D443D",
"P  c #5D443F",
"I  c #694034",
"U  c #61463F",
"Y  c #724035",
"T  c #734234",
"R  c #734335",
"E  c #734136",
"W  c #724236",
"Q  c #754134",
"!  c #754136",
"~  c #744237",
"^  c #734535",
"/  c #744636",
"(  c #744637",
")  c #734136",
"_  c #734138",
"`  c #754038",
"'  c #5A4240",
"]  c #5E4540",
"[  c #604440",
"{  c #614541",
"}  c #624541",
"|  c #624740",
" . c #624642",
".. c #634642",
"X. c #644741",
"o. c #634841",
"O. c #644942",
"+. c #674A44",
"@. c #674B47",
"#. c #684B43",
"$. c #684B45",
"%. c #6A4B46",
"&. c #694C44",
"*. c #694C46",
"=. c #684D46",
"-. c #6A4D47",
";. c #6F5147",
":. c #6E5048",
">. c #6E5149",
",. c #6F5149",
"<. c #6F504B",
"1. c #6F524A",
"2. c #715049",
"3. c #70524A",
/* pixels */
"E E E E E E E E ! E E E E E E E E ! E E E E ! ! E E E E E E E E E _ E E / / ^ / / E E E E E E E E E E E E E E E E E E E E E E E E E E ` E E E E E E E ",
"E E E E E E E E E E E _ E E E E E < - - - - - - - - - - - - - - - - - - - - - - - - - - g E E E E ! < - - - - - - - - - - - - - - - - - - - - a E E ! ",
"E E E E E E E E E E E E E E E E E %                                         X           1 E E E E E % X                                       1 E E _ ",
"E E E E E E E E E E E E E E E E E %                                               X     1 E E E E ! %                                     X   1 E E E ",
"E E E E E E E E _ E E < - - - - - @ O O & 2 2 2 2 2 2 2 2 2 2 2 4 q q % o O O O O O O o % - - - - - @ O o & 2 : 2 2 2 2 2 2 2 2 2 2 2 2 $ O O % - - a ",
"E E E E E E E E E E E %     X   o O @ @ 4 n n n n n n n n n n n *.,.,.3 @ @ @ # @ @ @ @ o       X   O @ @ 4 n n n n n n n n n n n n n n : @ # o     1 ",
"E E E E E E E E E ! E % X         O @ @ 4 n n n n n n n n n n n *.,.,.3 @ @ @ @ @ @ @ @ o         o O @ @ 4 n n n n n n n n n n n n n n - @ @ o     1 ",
"E E E E E E E E < - - @ o O & 2 2 3 3 3 q n n V n n n n n n n n [ [ [ K V V : @ @ @ @ @ O O O O O O : 3 3 q n n n n n n n n n n y n n y 4 3 4 O     1 ",
"E E E E E ! E E -   X O @ @ 4 n n n n n n n n n n n n n n n n n n y n *.,.3.3 @ @ @ @ @ @ @ @ @ @ @ 4 n n n n y n n n n n n n n n n n V n n n $     1 ",
"E E E E E E E E %     O @ @ 4 y n n n n n n n n n n n n n n n n n n n *.,.,.3 @ @ @ @ @ @ @ @ # @ @ 4 n y n n n n n n n n n n n n n n n n n n @     1 ",
"E ! E E E < - - @ O O : 3 3 q n n n n n n n n n n n n n n n n n y V n [ [ [ P V V : @ # @ @ @ @ @ @ n *.+.K n n V y n o.#.$.K n n n n n n n n @     1 ",
"E ! _ E E %     O @ @ 4 n n n n n n n n n n n n n n n n n n n n n n n n n y *.,.3.> @ @ @ @ @ @ @ @ P ,.,.[ n n n n n *.,.,.[ n n n n n n n n @     1 ",
"E E E E E %     O @ @ 4 V n n n n n n n n n n n n n n n n n n n y n n n n n #.,.,.3 @ @ @ @ @ @ @ @ P ,.,.[ y n n n n *.;.,.[ n n n n n n n n @     1 ",
"E E E E E %     & 3 3 q V n n n n n n n n n n n n n n n n n n n n n n n n n [ [ [ 2 @ @ @ @ @ @ @ @ P ,.,.*.$.$.K n n [ [ [ V n n n n n o.$.$.%     1 ",
"E E E ! E %     3 y n n n n n n n n n n n n n n n n n n n n n n n n n K n n n n V : @ @ @ @ @ @ @ @ P ,.,.,.,.3.[ n n n n n n n n n n y *.,.,.%     1 ",
"E E E E E %     3 n n n n V y n n n n n n n n n n n n n n n n n n n n n n n n n n : @ @ @ @ @ @ @ # K 3.3.,.,.,.[ n n n n n n y n n n n *.;.,.&     1 ",
"E E E E E %     3 n n X.*.$.K n n n n n n n n n n n n n n n n n y n n n n n o.$.*.& o o o o o O @ @ P ,.,.+.[ [ V n n n y n n V n o.+.$.w 3 3 O     1 ",
"E E E E E %     3 n n *.3.3.[ n n n n n n n n n n n n n n n n n V n n n n n *.,.,.&           O @ @ P ,.,.[ n n n n n n n n V n n *.,.,.3 @ @ o     1 ",
"E E E E E %     3 n n *.,.3.[ n n n n n n n n n n n n n n n n n n n n n V n *.3.3.&           O @ @ ] ,.,.[ n n n n n n n n n n n *.3.,.3 @ @ o     1 ",
"E E E E E %     3 n n [ [ [ V n n n n n n n n n n n n n n n n n n n n o.$.$.w 3 3 $ O O O O O o o o K ,.,.[ n n n n n n n n o.$.$.w 3 3 % @ @ o     1 ",
"E E E E E %     3 n n V V y y n n n n n n n n n n n n n n n n n n n n *.,.3.3 @ @ @ # @ @ @ @ o     V ,.,.[ n n n n n n y n *.,.,.3 @ @ @ @ @ o     1 ",
"E E E E E %     3 n n n V n n n n n n n n n n n n n n n n n n n n V n $.,.,.3 @ @ @ @ @ @ @ @ o     V ,.,.U n n n n n n n n *.,.3.3 @ @ @ @ @ o     1 ",
"E E E E E %     3 n n n n n n n n n n n n n n n n n n n n n n n n n n *.,.,.3 # @ @ @ @ @ @ @ O O O % 2 2 K $.$.K n n o.$.#.w 3 3 % # @ @ @ @ o     1 ",
"E E E E E %     3 n n n n n n y n n n n n n n n n n n n n n n n n n n *.3.,.3 @ @ @ # # @ @ @ @ @ # o     V ,.,.[ n n *.,.,.3 @ @ @ @ @ @ @ @ o     1 ",
"E E E E E %     3 n n n n n n n n n n n n n n n n n n n n n n n n n n *.,.3.3 @ @ @ @ @ @ @ @ @ @ @ o     V ;.,.[ y n *.,.,.3 @ @ @ @ @ @ @ @ o     1 ",
"E E E E E %     3 n n n n n n n n n n n n n n n n n n n n n n n o.$.$.w 3 3 % @ @ @ @ @ @ @ @ @ @ @ O O O % : 2 : : : 3 3 3 % @ @ @ @ @ @ @ @ o     1 ",
"E E E E E %     3 n n n n n n n n n n n n n n n n n n n n n n n *.,.3.3 # # # @ @ @ @ @ @ @ @ @ @ @ @ @ @ o     O @ @ @ @ @ @ @ @ @ @ @ @ @ @ o     1 ",
"E E E E E %     3 n n n n n n n n n n n n n n n n n n n n n n n *.;.;.> @ @ @ @ @ @ @ @ @ @ @ @ @ @ @ @ @ o     O @ @ @ @ @ # @ @ @ @ @ @ @ @ o     1 ",
"E E E E E %     3 n n n n n n n n n n n n n n n n n n n n n n n *.,.,.3 @ @ @ @ @ @ @ @ @ @ @ @ @ @ @ @ @ O O o o o o O @ @ @ @ @ @ @ @ @ @ @ o     1 ",
"E E E E E %     3 n n n n n n n n n n n n n n n n n n n n n n n *.,.,.3 @ @ @ @ @ @ @ @ @ @ @ @ @ @ @ @ @ @ @ # o     O @ @ @ @ @ @ @ @ @ @ @ o     1 ",
"E E E E E %     3 n n n n n n n n n n n n n n n n n n n n n n n *.,.,.3 @ @ @ @ @ @ @ @ @ @ @ @ @ @ @ @ @ @ @ @ o     O @ @ # @ @ @ @ @ @ @ @ o     1 ",
"E E E E E %     3 n n n n n n n n n n n n n n n n n n n n n n n 4 3 3 % @ @ @ @ @ @ @ @ @ @ @ @ @ @ @ @ # @ @ @ O O O o o o O @ @ @ @ @ @ @ @ o     1 ",
"E E E E E %     3 n n n n n n n n n n n n n n n n n n n n n n n : @ @ @ @ @ @ @ @ @ @ @ @ @ @ @ @ @ @ @ @ @ @ @ # @ @ o     O @ @ @ @ @ @ @ @ o     1 ",
"E E E E E %     3 n n n n n n n n n n n n n n n n n n n n n n n : @ @ @ @ @ @ @ @ @ @ @ @ @ @ @ @ @ @ @ @ @ @ @ @ @ @ o     O @ @ @ @ @ @ @ @ o   . 1 ",
"E E E E E %     3 n n n n n n n n n n n n n n n n n n n n n n n : @ @ @ @ @ @ @ @ @ @ @ @ @ @ @ @ @ @ @ @ @ @ @ @ @ @ O o O o o o O $ @ O o o % * * f ",
"E E E E E %     3 n n n n n n n n n n n n n n n n n n n n n n n : @ @ @ @ @ @ @ @ @ @ @ @ @ @ @ @ @ @ @ @ @ @ @ @ @ @ @ @ @ o     O @ @ o     * ; ; k ",
"E E E E E %     3 n n n n n n n n n n n n n n n V n y n v n n n : @ @ @ @ @ @ @ @ @ @ @ @ @ @ @ @ @ @ @ @ @ @ @ @ @ @ @ @ @ o   . O @ @ o     * ; ; k ",
"E E E E E %     3 n n n n n n n n n n n n n n n n n n n V o.$.$.2 @ @ @ @ @ @ @ @ @ @ @ @ @ @ @ @ @ @ @ @ @ @ @ @ @ @ @ @ @ O o O o o o o     * ; ; k ",
"E E E E E %     3 n n n n n n n n n n n n n n n n n n n n *.3.,.3 @ @ $ @ @ @ @ @ @ @ @ @ @ @ @ @ @ @ @ @ @ @ @ @ @ @ @ @ @ @ @ @ o           * ; ; k ",
"E E E E E %     3 n n n n n n n n n n n n n n n n n n n n *.3.,.3 @ @ $ @ @ @ @ @ @ @ @ @ @ @ @ @ @ @ @ @ @ @ @ @ @ @ @ @ @ @ @ @ o           * ; ; k ",
"E E < - - 4 c q n n n n n n o.#.#.P n n n n y n n n n n n *.,.,.> @ @ @ @ @ @ @ @ @ @ @ @ @ @ @ @ @ @ @ @ @ @ @ @ @ @ @ @ @ @ @ @ O O O O o O O + + a ",
"E E %     ' ,.,.[ n n n n n *.,.,.[ n n n n n y n n n n n *.;.,.> @ @ @ @ @ @ @ @ @ @ @ @ @ @ @ @ @ @ @ @ @ @ @ @ @ @ @ @ @ @ @ @ @ @ @ @ @ $ o   X 1 ",
"E E %     V ,.,.[ V n n n n *.,.,.[ n n n n n n n n n n n *.,.,.2 @ @ @ @ @ @ @ @ @ @ @ @ @ @ @ @ @ @ @ @ @ @ @ @ @ @ @ @ @ @ @ # @ @ @ @ @ $ o     1 ",
"E E %     & 3 3 q n n y n n [ [ [ K y n n n n n n n n n n 4 3 3 % @ @ @ @ @ @ @ @ @ @ @ @ @ @ @ @ @ @ @ @ @ @ @ @ @ @ @ @ @ @ @ # @ @ @ # @ @ O O O % ",
"E E %     O @ @ 4 n n n n n V V n n n n n n n n n n n n n : @ # # @ @ @ @ @ @ @ @ @ @ @ @ @ @ @ @ @ @ @ @ @ @ @ @ @ @ @ @ @ @ @ @ # @ @ @ # @ @ @ @ o ",
"E E %     O @ @ 4 n n n n n n n n n n n n n n n n y y n n : @ @ @ @ @ @ @ @ @ @ @ @ @ @ @ @ @ @ @ @ @ @ @ @ @ @ @ @ @ @ @ @ @ @ @ @ @ @ @ @ @ @ @ @ o ",
"E E %     O @ @ 4 n n n n n n n n y n n n n n y n n [ +.$.2 @ @ @ @ @ @ @ @ @ @ @ @ @ @ @ @ @ @ @ @ @ @ @ @ @ @ @ @ @ @ @ @ @ @ @ @ # @ @ # @ @ @ @ o ",
"E E %     O @ @ 4 n n n n n n V V n n n n n n n V n *.,.,.3 @ @ # @ @ @ @ @ @ @ @ @ @ @ @ @ @ @ @ @ @ @ @ @ @ @ @ @ @ @ @ @ @ @ @ @ @ @ @ @ @ @ @ @ o ",
"E E %     O @ @ 4 n n n n n V n n n n n n n n n n n *.,.,.3 $ @ @ @ @ @ @ @ @ @ @ @ @ @ @ @ @ @ @ @ @ @ @ @ @ @ @ @ @ @ @ @ @ $ @ @ @ @ @ @ @ @ @ @ o ",
"E E %     O @ @ 4 n n n n n n n n n n n n n n n n V *.,.,.3 # @ @ @ @ @ @ @ @ @ @ # @ @ @ @ @ @ @ @ @ @ @ : 3 4 % @ @ : 3 3 % @ @ : 3 3 % @ @ @ @ @ o ",
"E E %     O @ @ 4 n n n V n n n y n n n n n n V n n $.,.,.3 @ @ @ @ @ @ @ @ @ @ @ @ @ @ @ @ @ @ @ @ @ @ @ 4 n V : @ @ 4 y n : @ @ 4 n V : @ @ @ @ @ o ",
"E E %     O @ @ 4 n n n n n n n n n n n n n n n n n *.,.3.3 @ @ @ @ @ @ @ @ @ @ @ @ @ @ @ @ @ @ @ @ $ @ @ 4 n n : @ @ 4 n n : @ @ 4 n n : @ @ @ @ @ o ",
"E E %     O @ @ n $.$.K n n n n n n n n n n n O.$.$.w 3 3 % @ @ @ @ @ @ @ @ @ @ @ # @ @ @ @ @ @ @ @ : 3 3 : : : 3 3 3 q n n 4 3 3 : : : 3 3 3 % @ @ o ",
"E E %     O @ @ P 3.,.[ n n n V n n n n n n n *.3.,.3 @ @ @ @ @ @ @ @ @ @ @ @ @ @ @ @ @ @ @ @ @ @ @ 4 n n - @ @ 4 n n V n n y n V : @ @ 4 n n : @ @ o ",
"E E %     O @ @ P ,.3.[ n n n n n n n n n n n *.,.,.3 @ @ @ @ @ @ @ @ @ @ @ @ @ @ @ @ @ @ @ @ @ # @ 4 V n : @ @ 4 n n n n n n n n : @ @ 4 n n : @ @ o ",
"E E %     O @ @ : 3 3 : : 2 : : : : : : 2 2 : 3 3 3 $ o o O @ @ @ @ @ @ @ @ @ @ @ 2 4 4 % @ @ @ @ @ % : : 3 3 3 q n n n n y n n n 4 3 3 : : : $ @ @ o ",
"E E %     O @ @ @ @ # @ @ # @ @ @ @ @ @ @ @ @ @ @ @ o     O @ @ @ @ # @ @ @ @ @ $ 5 n V : @ @ @ @ @ @ @ @ 4 n n n n V n n n n n n V n n : @ @ @ @ @ o ",
"E E %     O @ @ $ @ @ @ @ @ @ # @ @ @ @ @ @ @ @ @ @ o     O @ @ @ @ @ @ # @ @ @ @ 4 n n : # @ @ @ @ @ @ @ 5 n n n V n n n n n V n n n n : @ @ @ @ @ o ",
"! E < * * O o o O # @ @ @ @ : 3 3 % @ @ : 3 3 % @ @ O O O o o o O @ @ @ @ @ : 4 3 : : : $ @ @ @ @ @ : 4 3 q n n n n n n n n V V V 3 : : 3 4 3 % @ @ o ",
"E E 1 ; ; O     O @ @ @ @ @ 4 y n : @ @ 4 V n : @ @ @ @ @ o     O @ @ @ @ @ 4 n n - $ @ # @ @ @ @ @ 4 n n n n n n n n n n y n n n : @ @ 4 n n : @ @ o ",
"! E 1 ; ; O     O @ @ @ @ @ 4 n V : @ @ 5 n n - @ @ @ @ # o     O @ @ @ @ @ 4 n n : @ # @ $ @ @ @ @ 4 y n n n n y n n n n y V n n : @ @ 4 n n : @ @ o ",
"E E 1 ; ; O     O @ @ @ @ @ % : : 3 3 3 : : : 3 3 3 % @ @ o     o o o O @ @ % : : $ @ @ @ @ @ @ @ @ - : : 5 n n n n n n n n 3 : : 3 4 3 : : : $ @ @ o ",
"E E 1 ; ; O .   O @ @ @ @ @ @ @ @ 4 n n - @ @ 4 n n : @ @ o     X     O @ @ @ @ @ @ @ @ @ @ @ @ @ @ @ @ @ 4 n n n n V n n n : @ @ 4 n n : @ @ @ @ @ o ",
"E ! 1 ; ; O     O @ @ @ @ @ @ @ @ 4 n n - $ @ 4 n n : @ @ o           O @ @ @ $ @ @ # @ @ @ @ # @ @ @ @ @ 4 y K n n n n n n : @ @ 4 n n : @ # # @ @ o ",
"E E z i i = * * O o o O @ @ @ @ @ % : : $ @ @ % : : # @ @ O O O X     o o o o o o O # # @ # @ @ @ @ # $ @ % : : : : : : : : 3 3 4 : : : 3 3 3 % @ @ o ",
"E E E E ! 1 ; ; O   X O @ @ @ @ @ @ $ @ @ @ @ @ @ @ @ @ @ @ @ @ o                 O # @ @ @ @ @ @ @ @ @ @ @ @ @ @ @ @ @ @ @ 4 V y : @ @ 4 n V : @ @ o ",
"E ! E E E 1 ; ; O     O @ @ @ @ @ @ @ @ @ @ @ @ @ @ @ @ @ @ @ @ o                 O @ @ @ @ @ @ @ @ @ @ @ @ @ @ @ @ @ @ @ @ 4 n n : @ @ 4 V n : @ @ o ",
"! E E E E 1 ; ; * * * O o o o o o o o o o o o O @ @ @ @ @ @ @ @ o                 o o o O @ @ @ @ @ @ @ @ @ @ @ @ @ @ @ @ @ % : : $ @ @ % : : $ @ @ o ",
"E E E E ! 1 ; ; ; ; ; O                       O @ @ @ @ @ @ @ @ o               o       O @ @ @ @ @ @ @ @ @ @ @ @ @ @ @ @ @ @ @ @ @ @ @ @ @ @ @ @ @ o ",
"E E E E E 1 ; ; ; ; ; O                       O @ @ @ @ @ @ @ @ o         o       o X   O @ @ @ @ @ @ @ @ @ @ # @ @ @ @ @ @ @ @ @ @ @ @ @ @ @ @ @ @ o ",
"E E E E E z i f 1 , ; * * * * * * * * * * * * O o o o o o o o o % * * * * * * * * * * * O o o o o o O @ @ @ @ @ @ @ @ O o o O @ @ @ @ @ @ @ @ @ @ @ o ",
"E ! E E E ! E E 1 ; ; ; ; ; ; ; ; ; ; ; , ; ; O                 * ; ; ; ; ; ; ; ; ; ; , O           O @ @ @ @ @ @ # @ o     O @ @ @ @ @ @ @ @ @ @ @ o ",
"E E E E E E E E 1 ; ; ; ; ; ; ; ; ; ; < ; ; ; O                 * ; ; ; ; ; ; ; ; ; ; ; O           O @ @ @ @ @ @ @ @ o     O @ @ @ @ @ @ @ @ @ # @ o ",
"E E E E E E E E h a a , ; ; ; = = ; = = = = = * * * * * * * * * = ; ; u i i i i f 1 ; ; * * * * * * O o o o o o o o o # * * O o o o o o o o o o o o % ",
"E E E E E E E E I h I 1 ; ; = = = = = = = = = ; ; ; ; ; ; ; ; ; ; ; ; k E E E E E 1 ; ; ; ; ; ; ; ; O                 * ; ; O                       * "
};
